<svg version="1.1" id="Layer_1" xmlns="http://www.w3.org/2000/svg" xmlns:xlink="http://www.w3.org/1999/xlink" x="0px" y="0px"
	 width="100%" viewBox="0 0 269 267" enable-background="new 0 0 269 267" xml:space="preserve">
<path fill="#D5ACA0" opacity="1.000000" stroke="none" 
	d="
M1.324317,156.296967 
	C1.000000,105.569328 1.036969,55.138569 0.913176,4.708203 
	C0.905292,1.496359 1.751829,0.921553 4.781851,0.927295 
	C57.875317,1.027913 110.969025,1.000000 164.531342,1.000000 
	C168.058289,6.592723 164.226929,14.745723 157.300797,16.957344 
	C155.061111,17.672504 152.899506,18.300089 150.865051,20.269640 
	C144.084137,21.809296 137.611847,20.956678 131.176712,21.106962 
	C124.720695,21.257730 118.258430,21.128883 111.798950,21.143719 
	C104.223274,21.161118 104.223289,21.169224 102.125389,28.414118 
	C101.599533,29.161404 101.304398,29.729248 100.864861,29.775612 
	C95.693359,30.321117 93.781410,34.038979 92.103325,38.624275 
	C82.918480,42.038563 84.360268,40.288818 84.196098,50.621223 
	C83.995384,63.253326 84.248848,75.891235 84.099907,88.525253 
	C84.011703,96.007072 81.488678,97.903206 73.699631,96.171844 
	C72.466675,95.385101 71.645645,94.591766 71.569511,93.634682 
	C71.153580,88.406464 67.754250,87.800697 63.523876,88.073944 
	C60.717079,88.255234 57.888748,88.105156 55.070065,88.108086 
	C47.551579,88.115891 47.551579,88.116791 44.570927,95.180870 
	C36.988106,96.656998 36.842884,101.841843 37.048916,107.683731 
	C37.348179,116.169250 37.108185,124.673134 37.132126,133.169113 
	C37.150532,139.700500 37.169308,139.700455 43.719963,142.082581 
	C45.955299,151.787994 53.298672,149.920639 59.773590,149.857925 
	C60.764637,149.848328 61.751427,149.765823 63.166630,149.664078 
	C64.910378,149.873367 66.236694,149.870956 67.564003,149.924026 
	C73.070976,150.144272 75.039619,152.043777 75.014046,157.013000 
	C74.988785,161.921051 72.960693,163.822357 67.472099,164.080704 
	C66.974380,164.104156 66.475876,164.105164 65.977692,164.115082 
	C57.762882,164.278580 57.762886,164.278687 54.582336,172.124268 
	C52.277378,174.018021 50.096111,174.165878 47.364899,173.157562 
	C45.359116,170.395218 43.040352,169.826630 40.144783,169.938354 
	C35.666313,170.111160 31.175797,170.226913 26.684992,170.072128 
	C22.503134,169.927963 20.008644,167.942261 20.000135,163.697235 
	C19.991299,159.289124 17.801769,158.098068 13.738067,158.045731 
	C9.699626,157.993668 5.398429,159.293884 1.324317,156.296967 
z"/>
<path fill="#33323D" opacity="1.000000" stroke="none" 
	d="
M225.321762,267.649475 
	C221.969406,268.000000 218.938812,268.000000 215.454102,268.000000 
	C214.797012,267.770813 214.594040,267.541626 214.124496,266.940002 
	C211.848190,260.558868 213.103638,254.366669 212.906387,248.264450 
	C212.651932,240.393097 212.613251,240.180756 204.701126,240.148117 
	C197.716049,240.119293 190.730652,240.182877 183.745804,240.113480 
	C181.596008,240.092117 179.396057,240.245773 177.062393,238.736374 
	C174.591904,235.910858 174.604889,233.098328 175.833435,229.730515 
	C178.471283,226.315506 182.218826,227.034851 185.771088,225.945679 
	C193.582962,227.592636 201.066925,226.671890 208.505844,226.837234 
	C211.719971,226.908676 212.858063,225.177673 212.882950,222.163086 
	C212.913040,218.517715 212.660477,214.861526 213.168610,210.833740 
	C214.057663,204.677460 211.186432,201.691208 205.541534,200.271530 
	C202.776993,193.756622 203.752914,191.046829 209.649887,188.927750 
	C211.928299,188.109009 212.732758,186.730255 212.823044,184.542938 
	C212.972717,180.917526 212.685654,177.283096 213.120239,173.283295 
	C213.323273,170.902420 212.899994,168.935669 212.808563,166.947632 
	C212.741257,165.483963 212.138458,164.351135 210.392136,164.420670 
	C208.953995,164.477951 208.373245,165.430023 208.188614,166.684189 
	C207.875717,168.809692 207.885223,171.032089 205.844345,172.936249 
	C202.470154,174.438354 199.453552,174.457138 196.068863,172.734863 
	C193.261063,169.684174 193.971939,166.383057 194.111145,162.726364 
	C193.499954,154.186493 193.499985,154.157562 185.720551,154.147720 
	C170.058823,154.127899 154.396912,154.096237 138.735382,154.165146 
	C132.762390,154.191422 132.308762,154.783844 132.128647,160.821793 
	C132.029938,164.130920 132.577164,167.492218 131.287140,171.098389 
	C129.662552,173.661331 127.323799,173.835358 125.031372,174.138779 
	C123.618492,174.325760 122.425247,174.849762 122.458946,176.541946 
	C122.492584,178.231461 123.733231,178.709305 125.125320,178.875397 
	C127.102257,179.111221 129.060425,179.353226 130.830322,181.191162 
	C132.469955,184.612045 132.466187,187.670105 130.619141,191.085938 
	C128.526245,192.999542 126.363434,193.085663 124.181107,193.114761 
	C118.855797,193.185745 113.529907,193.196518 108.205154,193.128296 
	C100.068901,193.024033 98.723450,191.534943 99.288376,182.839752 
	C99.557350,182.126968 99.669746,181.851761 100.008774,181.208893 
	C101.046738,179.933228 102.148674,179.225266 103.259254,179.287048 
	C108.375023,179.571579 109.210938,176.287201 109.358643,171.921677 
	C109.598175,168.519730 109.671432,165.489182 110.988823,162.280426 
	C111.404655,161.684189 111.617775,161.312210 111.896820,161.269455 
	C116.844391,160.511383 118.336594,157.042648 118.858063,152.312057 
	C122.551384,149.015060 125.083923,145.160339 128.619232,141.651123 
	C139.389038,140.234161 149.796295,141.011917 160.667908,141.047806 
	C177.391815,140.675034 193.639999,140.679703 210.372879,141.087112 
	C220.526764,140.699249 230.196671,140.690109 240.348877,141.095367 
	C244.983032,141.082779 249.187241,140.131180 253.639801,142.060120 
	C258.232727,149.190292 255.743301,153.890945 247.749771,154.092575 
	C242.781006,154.217911 237.807846,154.044159 232.839706,154.179443 
	C230.752533,154.236282 228.052094,153.885864 227.747589,156.842819 
	C227.464233,159.594543 230.012970,159.534348 231.898590,160.065781 
	C236.846725,161.460297 237.990829,164.509338 235.992676,171.588348 
	C235.130875,172.754272 234.273880,173.253967 233.317642,173.581848 
	C227.121796,175.706512 227.118530,175.703201 227.106476,182.368179 
	C227.101059,185.362640 227.253159,188.366348 227.072723,191.349380 
	C226.826889,195.413528 227.776855,198.273926 232.585007,198.194748 
	C233.236038,198.184036 233.838013,198.611847 234.766022,199.119202 
	C235.967239,200.120056 236.715485,201.140244 236.690643,202.237137 
	C236.574097,207.385513 239.817139,208.284286 244.351562,208.187622 
	C247.842072,207.919144 250.939148,207.395767 254.155884,209.441956 
	C257.819427,216.837479 255.553299,220.852768 248.053009,221.099136 
	C243.056793,221.263260 238.053970,221.044647 233.058243,221.204651 
	C228.097183,221.363556 227.270981,222.143570 227.206055,227.174210 
	C227.061951,238.336945 227.220459,249.501862 227.118011,260.665192 
	C227.097046,262.950684 227.491135,265.392090 225.321762,267.649475 
z"/>
<path fill="#D1A99D" opacity="1.000000" stroke="none" 
	d="
M151.227173,19.217886 
	C151.466232,16.880957 153.110275,16.391912 154.716492,15.947526 
	C161.903885,13.958998 164.599365,8.730827 164.999420,1.409027 
	C196.020889,1.000000 227.041794,1.000000 258.531342,1.000000 
	C260.867279,3.115050 260.341187,5.268408 259.090759,7.423389 
	C257.031586,10.972104 254.125259,13.561352 250.422134,15.352498 
	C246.175797,17.406376 243.898239,20.614691 244.070908,25.618000 
	C244.608841,41.205334 242.489365,56.740913 243.034103,72.340996 
	C243.212433,77.447975 241.976364,82.213013 237.891571,86.297684 
	C236.953247,87.138763 236.171326,87.750504 235.408264,87.665665 
	C229.617432,87.021858 226.709946,90.028679 225.155396,95.570786 
	C216.792175,98.872368 212.972778,96.463844 212.894318,88.156097 
	C212.762878,74.235977 212.839645,60.314514 212.869308,46.393929 
	C212.876999,42.786720 211.983215,40.174892 207.485931,39.636883 
	C206.816071,39.327038 206.551636,39.204254 205.941803,38.824715 
	C205.383194,38.320858 205.057648,38.078575 205.024033,37.793453 
	C204.450806,32.932049 201.669647,30.485205 196.850372,30.166828 
	C196.395523,30.136778 196.018509,29.683218 195.346893,29.066353 
	C194.540344,27.891178 194.052322,26.995970 194.010468,25.983438 
	C193.846268,22.009966 191.367355,21.138351 187.943542,21.141205 
	C177.985138,21.149508 168.026260,21.202078 158.068176,21.108339 
	C155.778732,21.086788 153.364914,21.399317 151.227173,19.217886 
z"/>
<path fill="#F9F4E1" opacity="1.000000" stroke="none" 
	d="
M1.000000,156.468658 
	C6.453840,155.999542 11.918439,156.207809 17.357851,155.927429 
	C21.179735,155.730438 22.466269,157.233856 22.023252,160.821320 
	C21.882570,161.960541 22.086727,163.139023 21.991608,164.287827 
	C21.760027,167.084793 23.028025,168.087173 25.769413,168.031357 
	C31.551321,167.913635 37.337509,168.021942 43.121731,167.994110 
	C45.254269,167.983841 47.237827,168.040283 46.957371,171.434540 
	C46.447102,173.023926 45.356117,173.822708 44.288754,173.709457 
	C38.909515,173.138611 36.798149,176.235382 35.607578,181.122421 
	C34.861343,181.876190 34.309757,182.249908 33.675751,182.460129 
	C27.120413,184.633636 27.116899,184.630722 27.105267,191.411423 
	C27.099581,194.725937 27.249262,198.048615 27.070208,201.352936 
	C26.852064,205.378647 27.720486,208.275925 32.541077,208.183670 
	C33.190365,208.171249 33.792377,208.590637 34.720261,209.087708 
	C35.688614,209.857086 36.390678,210.550369 36.398376,211.332382 
	C36.441582,215.720627 39.486870,217.106918 43.266956,218.402817 
	C44.770908,220.185532 45.038219,221.958939 45.052261,223.817215 
	C45.104843,230.775009 45.111912,237.732452 45.041656,244.690323 
	C45.003597,248.459335 43.695435,252.088760 40.337971,253.417648 
	C33.260437,256.218964 27.940468,260.576324 24.303406,267.694000 
	C17.687260,268.000000 11.363988,267.783203 5.066106,268.089142 
	C1.790951,268.248230 0.874331,267.655914 0.892079,264.087250 
	C1.069714,228.371323 1.000000,192.654144 1.000000,156.468658 
z"/>
<path fill="#CEA79B" opacity="1.000000" stroke="none" 
	d="
M225.468658,268.000000 
	C224.998962,253.233673 225.107635,238.465912 224.917526,223.702026 
	C224.871582,220.134979 225.590317,218.688110 229.505646,218.905228 
	C235.791138,219.253754 242.129898,218.695511 248.408020,219.104980 
	C252.994461,219.404129 254.786407,217.938385 254.022842,213.402756 
	C253.887100,212.596481 254.008301,211.746948 254.239319,210.123474 
	C260.716705,208.287781 261.472961,204.044525 260.978424,198.720551 
	C260.625671,194.922836 260.904297,191.067947 260.896820,187.238632 
	C260.892761,185.162430 260.386932,183.297424 258.907349,181.272552 
	C257.295013,171.800690 257.664276,162.647781 258.401855,153.592743 
	C258.889984,147.599884 264.208771,143.380905 269.614594,143.734390 
	C270.000000,184.062424 269.967834,224.124908 270.066162,264.187103 
	C270.073395,267.127655 269.636841,268.157349 266.330475,268.098938 
	C252.869705,267.861206 239.402283,268.000000 225.468658,268.000000 
z"/>
<path fill="#CFA89C" opacity="1.000000" stroke="none" 
	d="
M237.201935,86.197006 
	C240.606155,79.947495 241.330185,73.495049 241.030716,66.744080 
	C240.376282,51.990734 242.582901,37.297646 242.067139,22.530899 
	C241.888672,17.421400 245.920303,15.181408 249.833725,13.228916 
	C254.690536,10.805742 258.052582,7.275712 258.997253,1.383208 
	C262.655182,1.000000 267.692444,-0.421424 269.571289,1.405450 
	C271.398315,3.181957 269.998291,8.287354 269.998505,11.931032 
	C270.000916,50.974915 270.000000,90.018799 270.000000,129.531342 
	C268.369446,132.851105 268.094940,137.514359 262.439636,135.108398 
	C260.693451,132.938965 260.918427,130.734161 260.897888,128.610428 
	C260.821411,120.687706 260.601868,112.751648 260.964233,104.845955 
	C261.190857,99.900696 259.710968,96.925743 254.300735,95.929504 
	C252.257523,88.731682 247.460022,87.049095 241.019745,87.964012 
	C239.684280,88.153725 238.423157,87.515564 237.201935,86.197006 
z"/>
<path fill="#F8F3E0" opacity="1.000000" stroke="none" 
	d="
M24.468658,268.000000 
	C24.820330,260.503998 28.335409,255.357925 36.043598,253.427551 
	C41.018650,252.181625 43.277882,248.871765 43.075344,243.506760 
	C42.780964,235.708954 42.999565,227.891769 42.999088,219.624634 
	C43.678204,217.877396 44.840225,217.118530 46.197586,217.097839 
	C54.781693,216.966934 63.386833,216.061981 72.351501,217.858643 
	C74.807907,219.714432 75.043800,222.006332 75.084587,224.382553 
	C75.164467,229.036087 75.366158,233.706970 75.059509,238.338623 
	C74.748611,243.034531 76.143745,246.053253 81.485001,246.917496 
	C82.098816,247.336639 82.483299,247.532120 82.531921,247.798920 
	C83.487778,253.043610 86.907951,255.518417 92.243622,256.518127 
	C94.648972,260.120361 94.432816,263.628723 93.215538,267.601166 
	C70.312439,268.000000 47.624878,268.000000 24.468658,268.000000 
z"/>
<path fill="#33323D" opacity="1.000000" stroke="none" 
	d="
M180.357269,267.778259 
	C179.555557,268.000000 179.111099,268.000000 178.333328,268.000000 
	C175.765244,266.917206 175.121246,264.954590 174.958130,262.666016 
	C174.807495,260.552307 174.396362,258.576874 171.129089,258.862579 
	C157.652283,259.133850 144.587708,259.651886 131.087524,258.411346 
	C130.356430,258.030334 130.072281,257.855804 129.447052,257.307953 
	C127.560219,253.991318 127.506592,251.050568 129.458832,247.731232 
	C131.317871,246.190521 133.084671,245.904572 134.933640,245.902832 
	C148.618546,245.889984 162.304565,245.591156 176.483444,246.079056 
	C181.240891,245.767715 185.509827,245.772736 189.776627,245.882629 
	C196.926682,246.066788 198.555847,248.089783 197.417755,255.882843 
	C196.852692,257.052429 196.316925,257.956726 195.560501,258.012329 
	C190.232697,258.404053 188.840622,262.221039 187.630066,266.799774 
	C185.177658,267.959625 182.909592,267.243835 180.357269,267.778259 
z"/>
<path fill="#D1A99D" opacity="1.000000" stroke="none" 
	d="
M129.558716,257.277344 
	C143.662582,256.982758 157.366241,257.008820 171.534317,257.100891 
	C175.008957,260.653900 174.882355,264.048645 171.349564,267.676758 
	C157.645767,268.000000 144.291550,268.000000 130.468658,268.000000 
	C127.072899,264.746735 127.364456,261.233124 129.558716,257.277344 
z"/>
<path fill="#CEA79B" opacity="1.000000" stroke="none" 
	d="
M262.840759,135.157623 
	C266.842865,135.465408 267.337311,131.852234 269.672668,130.089874 
	C270.000000,134.356903 270.000000,138.713806 270.000000,143.535355 
	C263.937988,145.439453 260.108551,150.310928 260.024719,157.002701 
	C259.929077,164.639694 260.000977,172.278793 259.999878,180.375183 
	C259.121857,182.031158 257.923126,182.134979 256.187134,181.619324 
	C253.322159,178.022110 254.603195,174.046631 254.272141,170.389374 
	C253.639923,163.404648 252.919556,156.307983 255.687988,149.464874 
	C256.505127,147.445038 257.279694,145.510117 259.177032,143.721664 
	C261.317413,141.033676 260.639801,137.680664 262.840759,135.157623 
z"/>
<path fill="#33323D" opacity="1.000000" stroke="none" 
	d="
M129.976410,256.974915 
	C129.972366,260.332001 129.985794,263.707306 129.999619,267.541290 
	C117.979103,268.000000 105.958214,268.000000 93.468658,268.000000 
	C91.137062,264.789001 92.353539,261.271820 92.262848,257.089844 
	C95.060562,254.487839 97.711220,254.726273 100.773773,256.029968 
	C102.184860,257.176575 102.630272,258.418213 102.908592,259.721863 
	C103.304642,261.576935 102.753418,264.176453 105.360550,264.566956 
	C109.089043,265.125336 112.941307,265.524872 116.598473,264.142517 
	C117.744949,263.709167 117.811668,262.253845 117.915924,261.096130 
	C118.067169,259.416351 118.455093,257.838684 119.917999,256.237793 
	C123.342201,254.604980 126.383057,254.257065 129.668976,256.702759 
	C130.029083,257.029083 129.993866,256.993073 129.976410,256.974915 
z"/>
<path fill="#675289" opacity="1.000000" stroke="none" 
	d="
M187.458221,267.679138 
	C186.996628,266.530823 186.993118,265.703339 187.000366,264.875885 
	C187.078537,255.960693 186.120895,257.112701 195.505402,256.991211 
	C198.909622,254.225861 202.391968,254.119675 205.485428,256.126343 
	C208.937332,258.365509 208.318527,262.065552 207.234970,265.958252 
	C204.876587,268.474884 202.187820,267.049255 199.408691,267.780029 
	C195.307098,268.000000 191.614182,268.000000 187.458221,267.679138 
z"/>
<path fill="#D0A99D" opacity="1.000000" stroke="none" 
	d="
M171.437500,268.000000 
	C172.114517,264.755829 172.079208,261.396393 171.999054,257.599670 
	C175.656906,256.327393 177.569595,257.281647 177.077774,261.525543 
	C176.863846,263.371643 176.399719,265.451538 177.849274,267.611633 
	C175.958328,268.000000 173.916672,268.000000 171.437500,268.000000 
z"/>
<path fill="#CB877B" opacity="1.000000" stroke="none" 
	d="
M199.466858,268.000000 
	C200.798187,266.184082 203.110687,267.366516 205.561127,266.901794 
	C208.556747,264.610474 211.269608,264.285675 214.487061,266.660828 
	C214.874466,267.178131 214.916061,267.339691 214.978821,267.750641 
	C209.977905,268.000000 204.955811,268.000000 199.466858,268.000000 
z"/>
<path fill="#D0A99D" opacity="1.000000" stroke="none" 
	d="
M186.593933,267.217468 
	C186.995163,267.358307 186.917923,267.679749 186.958954,267.839874 
	C184.958328,268.000000 182.916672,268.000000 180.437500,268.000000 
	C181.810303,265.989288 184.131607,267.405457 186.593933,267.217468 
z"/>
<path fill="#34333E" opacity="1.000000" stroke="none" 
	d="
M72.401764,95.549973 
	C81.998207,94.966934 81.998497,94.966934 81.998672,85.871452 
	C81.998940,71.934135 82.259102,57.989403 81.862221,44.063400 
	C81.716858,38.962982 83.149818,37.103207 88.115425,37.974575 
	C89.081406,38.144089 90.102211,38.001118 91.944588,38.294167 
	C94.646057,40.893032 94.110352,43.654770 94.118477,46.251400 
	C94.189064,68.810066 94.176399,91.369026 94.129913,113.927734 
	C94.121590,117.968857 94.294746,121.269234 99.366814,122.563904 
	C103.037338,123.500839 103.634995,126.815170 101.982422,132.689117 
	C99.429070,135.629181 96.332893,134.998230 93.449783,135.104721 
	C90.998787,135.195236 88.545029,135.204300 85.633591,135.408981 
	C76.749481,134.847656 68.319344,135.250656 59.895294,135.117523 
	C56.121616,135.057877 52.924358,134.326767 52.134991,129.921494 
	C51.422886,125.947380 52.816235,123.501083 57.524696,121.951729 
	C60.914711,120.836212 60.645622,118.102203 61.474583,115.248306 
	C61.789135,114.586517 61.922390,114.329620 62.333096,113.749161 
	C66.420166,110.916107 70.720657,112.311012 74.793007,111.886597 
	C76.530983,111.705460 78.917282,112.285652 79.287254,109.827469 
	C79.680344,107.215691 77.180901,107.400940 75.535706,106.809319 
	C71.143715,105.229897 70.159012,102.318413 72.401764,95.549973 
z"/>
<path fill="#34323E" opacity="1.000000" stroke="none" 
	d="
M111.857605,161.852295 
	C111.956245,165.237503 112.304573,168.346756 111.031792,171.709320 
	C110.585815,172.444107 110.231239,173.014145 109.824608,173.048630 
	C105.147964,173.445129 102.794022,176.383286 101.219162,180.772675 
	C100.962051,181.038498 100.995300,180.998306 101.015907,180.982315 
	C98.768631,183.356720 96.052155,183.519043 93.240234,182.285599 
	C90.345757,181.015930 89.986603,178.337967 89.910225,175.564407 
	C89.836876,172.900436 90.005760,170.228668 89.697647,167.572784 
	C89.506607,165.926041 88.790611,164.606277 86.941414,164.627304 
	C85.069511,164.648590 84.397499,166.034775 84.290573,167.664703 
	C83.941162,172.990677 84.234695,178.326553 84.111931,183.656494 
	C84.054817,186.136551 84.348526,188.693619 82.478699,191.248749 
	C79.550331,193.379059 76.779205,193.439545 73.493546,192.112381 
	C69.773216,188.800644 71.075279,184.732437 70.924438,181.034256 
	C70.661377,174.584717 70.431549,174.273087 64.108002,174.100662 
	C61.141872,174.019775 58.097523,174.598068 54.640709,172.659668 
	C53.910046,162.001724 53.910046,162.001724 64.063271,161.997910 
	C65.057159,161.997528 66.051056,161.998138 67.044945,161.997040 
	C72.504410,161.990997 74.895645,158.365982 72.934578,153.295761 
	C72.327148,151.725311 71.172394,152.154037 70.110962,152.009964 
	C68.021713,151.726425 65.811821,152.619049 63.428818,151.244476 
	C62.075771,150.265198 62.069817,149.224640 62.680168,147.759933 
	C65.092049,146.158829 66.174278,143.864899 68.213943,141.902924 
	C73.410339,140.148819 78.452652,141.348389 83.791519,140.544983 
	C88.833748,140.917114 93.437836,140.860687 98.039566,140.908829 
	C100.181252,140.931229 102.342865,140.921021 104.423653,142.781311 
	C105.393387,144.192825 105.587006,145.365677 105.484344,147.032684 
	C105.573288,148.896790 105.024422,150.172424 104.431732,151.826370 
	C102.117172,158.521225 102.321930,158.901840 108.655762,160.139786 
	C109.789948,160.361481 110.880859,160.664734 111.857605,161.852295 
z"/>
<path fill="#33323E" opacity="1.000000" stroke="none" 
	d="
M150.531067,18.897161 
	C163.801132,18.889503 176.606995,18.908171 189.412109,19.016907 
	C197.005859,19.081388 195.865601,17.962933 195.994995,25.623987 
	C196.009048,26.455450 195.991638,27.287445 195.672302,28.973055 
	C193.995773,31.035984 192.305573,31.088198 190.640167,31.090355 
	C164.650864,31.124022 138.661148,31.370535 112.196487,30.923031 
	C108.595848,30.774885 105.411629,31.695709 101.688599,29.674677 
	C100.963196,19.000252 100.963196,19.003632 111.158745,18.996862 
	C124.128014,18.988253 137.097275,18.973482 150.531067,18.897161 
z"/>
<path fill="#34333E" opacity="1.000000" stroke="none" 
	d="
M44.669327,142.344727 
	C34.999332,143.084885 34.999119,143.084885 34.999363,133.898148 
	C34.999657,122.945351 35.315098,111.979523 34.862770,101.045464 
	C34.649483,95.889626 36.218971,94.115364 41.134884,94.985893 
	C41.778969,95.099953 42.459774,95.006660 43.865154,95.204193 
	C46.899231,97.252258 44.371498,101.287567 48.203072,102.691818 
	C51.051220,103.002914 53.581631,102.906502 56.498844,103.233673 
	C59.073586,102.797226 61.141869,102.946007 63.387093,104.528984 
	C65.440056,107.683289 65.647591,110.492180 63.314484,113.648926 
	C62.978497,114.021736 63.009178,113.990585 63.024704,113.975189 
	C60.947285,116.485741 58.026089,116.070465 55.256950,116.113663 
	C46.141537,116.255829 46.256939,116.244827 46.086254,125.538574 
	C45.987103,130.937500 46.912010,136.403717 44.669327,142.344727 
z"/>
<path fill="#34333E" opacity="1.000000" stroke="none" 
	d="
M35.654274,181.679626 
	C34.899372,172.015259 34.899372,172.015579 44.085144,171.999252 
	C44.735302,171.998093 45.385448,171.987427 46.491795,171.913086 
	C49.016392,171.899017 51.084789,171.953018 53.596939,172.023880 
	C54.040688,172.040741 53.999134,172.001129 53.979469,171.980225 
	C55.407745,173.261673 56.076672,174.879791 56.064995,176.833130 
	C56.022232,183.985641 56.557297,191.146973 55.524021,198.719650 
	C55.183250,199.427429 55.036293,199.702271 54.577789,200.317657 
	C46.112900,204.056595 42.055290,201.536179 41.903355,192.977203 
	C41.885612,191.977432 41.773521,190.961945 41.903828,189.980133 
	C42.487938,185.578842 40.757996,182.938583 35.654274,181.679626 
z"/>
<path fill="#34333E" opacity="1.000000" stroke="none" 
	d="
M44.023247,95.024666 
	C43.926800,86.000221 43.926800,86.000145 53.063313,85.999306 
	C58.030704,85.998848 63.021519,86.296288 67.958359,85.907799 
	C72.191750,85.574661 73.695831,87.043137 73.024963,91.124092 
	C72.865913,92.091606 72.999352,93.107201 72.991104,94.558304 
	C72.983963,95.015938 72.998543,95.001083 73.005806,94.994354 
	C70.587334,97.723183 67.406128,97.053963 63.896622,96.874222 
	C61.422512,96.844109 59.397644,97.256721 56.945717,96.852768 
	C54.285480,96.651176 52.165043,97.640587 49.508698,97.479248 
	C47.320229,97.450935 45.795910,96.862755 44.275787,95.257729 
	C43.970661,94.970535 44.005806,95.006538 44.023247,95.024666 
z"/>
<path fill="#34333E" opacity="1.000000" stroke="none" 
	d="
M64.332047,147.643097 
	C63.678730,148.813416 63.357452,149.626816 63.036003,150.782104 
	C57.277168,153.087799 51.360329,151.599030 45.524502,151.889313 
	C43.834225,151.973404 44.038231,150.450714 44.015606,149.332687 
	C43.978806,147.514343 44.006428,145.694702 44.024025,143.416168 
	C44.041187,142.956726 44.006145,142.993073 43.988510,143.011108 
	C45.489185,141.216202 47.542286,140.833359 49.745850,140.904266 
	C54.474442,141.056381 59.249249,140.249969 64.342285,141.840088 
	C66.559296,143.864517 66.138184,145.585373 64.332047,147.643097 
z"/>
<path fill="#34333E" opacity="1.000000" stroke="none" 
	d="
M92.008827,38.008591 
	C92.011253,37.684486 92.003105,37.352985 92.002052,37.021465 
	C91.976532,28.993420 91.976677,28.993420 100.559692,29.009453 
	C101.016701,29.017065 101.000229,29.002907 100.994720,28.994110 
	C103.533226,31.567698 103.497597,34.457954 101.700729,37.940411 
	C98.585968,40.405922 95.714600,40.716919 92.371918,38.332333 
	C91.987114,37.987762 92.001564,38.001183 92.008827,38.008591 
z"/>
<path fill="#7B7BAB" opacity="1.000000" stroke="none" 
	d="
M211.341675,142.501175 
	C194.642761,142.874329 178.288605,142.912888 161.469269,142.893616 
	C160.274994,142.070068 159.835846,141.041656 160.150848,140.127579 
	C162.680618,132.786835 161.582565,125.168175 161.984604,117.667931 
	C162.047913,116.487213 162.428772,115.425499 163.211914,114.009796 
	C164.436325,112.727837 165.594345,112.350380 167.338943,112.309120 
	C170.437454,111.947952 173.083954,111.715302 176.159912,112.153763 
	C184.868134,111.566338 184.841248,111.566055 184.927246,103.461800 
	C184.953186,101.016785 184.611877,98.524559 185.703476,95.778458 
	C186.002487,95.182510 186.150009,94.959694 186.587204,94.463226 
	C193.916992,91.445984 193.917206,91.445984 193.920944,83.348152 
	C193.921936,81.198830 193.925446,79.049500 193.919876,76.900185 
	C193.902344,70.144028 193.901138,70.144028 187.153931,67.949234 
	C186.590317,67.524895 186.386887,67.319695 185.960220,66.733795 
	C183.623032,59.174000 183.623047,59.159992 175.896057,59.151360 
	C159.933472,59.133526 143.970825,59.177723 128.008362,59.120373 
	C125.376984,59.110920 122.651863,59.457756 119.872383,57.588783 
	C117.558846,54.536514 117.533821,51.648258 119.065338,48.233986 
	C121.536812,45.426266 124.493881,45.896564 127.256516,45.886005 
	C146.981857,45.810589 166.707504,45.883560 186.432938,45.834557 
	C192.869110,45.818569 192.994110,45.662170 194.551666,39.126099 
	C194.921219,38.409824 195.087479,38.130386 195.609131,37.511185 
	C199.113907,35.597370 202.238892,35.232704 205.686310,37.685234 
	C206.059113,38.010181 205.989853,38.010124 205.989822,37.975494 
	C207.616867,39.363548 208.098801,41.216198 208.104019,43.299610 
	C208.168518,68.999809 208.312454,94.700043 208.021500,120.399841 
	C208.013947,121.065559 207.890686,121.717880 207.501068,122.753357 
	C206.208755,125.358948 204.144104,125.784286 201.973160,126.058052 
	C200.325836,126.265793 198.378510,126.438370 198.603012,128.714233 
	C198.820190,130.915741 200.829041,130.744095 202.440155,130.878815 
	C205.494461,131.134216 208.737335,130.354126 211.712433,132.878235 
	C213.368439,136.245560 213.734894,139.247467 211.341675,142.501175 
z"/>
<path fill="#7C7BAC" opacity="1.000000" stroke="none" 
	d="
M163.720551,113.684647 
	C163.999084,119.486679 163.820572,124.909531 164.056747,130.314255 
	C164.244293,134.606628 162.731277,138.342316 161.072861,142.479828 
	C150.312500,142.907562 139.620895,142.979309 128.463684,143.108276 
	C127.003174,143.926956 125.917763,144.273438 124.279259,143.693130 
	C122.943398,142.653564 122.704674,141.554016 122.792419,139.948212 
	C123.819977,137.447754 125.225128,135.555298 125.891701,132.919418 
	C128.748520,128.140884 128.748520,128.140884 122.897423,123.549164 
	C121.588722,120.244194 121.583382,117.317444 123.194229,114.033623 
	C124.992233,112.207306 126.830818,111.879562 129.301239,112.158295 
	C132.528992,111.973839 135.288193,111.719284 138.506302,112.142029 
	C141.979568,111.910645 144.998749,111.720688 148.472992,112.141167 
	C151.657043,111.953888 154.388550,111.721642 157.583496,112.174667 
	C159.951950,112.039246 161.857574,111.882774 163.720551,113.684647 
z"/>
<path fill="#EDBB9D" opacity="1.000000" stroke="none" 
	d="
M195.430450,172.492279 
	C198.978195,172.002716 201.986359,171.994217 205.441101,171.949219 
	C208.493103,169.643906 211.232010,169.255615 214.493790,171.688721 
	C214.893036,177.337540 214.958252,182.623993 214.985611,187.910660 
	C214.993073,189.352707 215.233475,191.393631 212.959167,190.920059 
	C205.439957,189.354431 205.424362,193.918793 205.674820,199.952271 
	C204.156067,201.880997 202.673248,202.050003 201.162292,202.066650 
	C187.878128,202.213074 174.593857,202.220917 161.309738,202.061600 
	C159.972229,202.045563 158.655869,201.882462 157.064362,200.874939 
	C154.584335,197.942520 154.576416,195.052872 155.817719,191.613983 
	C157.634064,189.065628 159.974747,188.958954 162.334778,188.921646 
	C167.662918,188.837387 172.991974,188.936646 178.319839,188.867462 
	C184.066833,188.792862 184.221207,188.630203 185.398682,182.419876 
	C185.673416,181.796127 185.784683,181.551804 186.129822,180.989807 
	C186.853333,180.217667 187.403564,179.686386 188.037506,179.668869 
	C192.418579,179.547989 194.330719,176.968613 195.430450,172.492279 
z"/>
<path fill="#D16C63" opacity="1.000000" stroke="none" 
	d="
M130.685883,172.727127 
	C129.996918,166.456482 130.070618,160.817474 129.973297,155.181442 
	C129.933105,152.854294 130.767960,151.967209 133.136368,151.974197 
	C153.034363,152.032852 172.932678,152.033081 192.830688,151.978149 
	C195.165009,151.971710 196.166794,152.781693 196.013229,155.150558 
	C195.884735,157.132599 195.965363,159.128189 195.894562,161.573669 
	C192.395706,165.463257 188.134171,163.771072 183.700165,163.873383 
	C181.390182,163.917923 179.544846,164.151337 177.240387,163.853851 
	C171.001434,164.291229 165.218445,164.261093 159.003616,163.890686 
	C155.124359,164.068970 151.661865,164.318909 148.219437,164.072632 
	C143.850067,163.760010 140.712433,164.710739 140.708832,169.914902 
	C140.708389,170.548920 140.245834,171.134689 139.649139,172.060318 
	C136.894714,174.306656 134.205139,174.404419 130.685883,172.727127 
z"/>
<path fill="#CF8A7D" opacity="1.000000" stroke="none" 
	d="
M82.522743,191.610413 
	C81.993713,182.735260 82.191353,174.426941 81.913986,166.134521 
	C81.785461,162.291916 83.493652,161.711197 86.642479,161.963196 
	C89.336456,162.178787 92.553650,161.121552 92.063805,165.915375 
	C91.728004,169.201721 92.276512,172.579224 91.931725,175.863693 
	C91.493324,180.039963 92.984726,181.692657 97.136093,181.021713 
	C98.107361,180.864716 99.124832,180.993713 100.578781,180.978729 
	C100.928391,190.994049 100.928391,190.998474 111.109978,190.998688 
	C117.061317,190.998810 123.012650,190.982086 129.833527,191.215637 
	C132.642120,194.277283 132.347412,197.124207 130.477966,200.358871 
	C129.208115,201.467896 128.152191,201.956543 126.955406,201.970108 
	C115.860245,202.095856 104.760452,202.648926 93.275986,201.466705 
	C91.965332,200.813263 90.957664,200.132584 90.893211,199.195267 
	C90.551971,194.232895 87.264191,192.730560 82.522743,191.610413 
z"/>
<path fill="#7A7AAA" opacity="1.000000" stroke="none" 
	d="
M214.889267,266.550598 
	C212.176636,266.994202 209.520386,266.971863 206.419128,266.903870 
	C205.977097,266.692902 205.983032,266.527618 205.982620,266.362305 
	C205.955063,255.527924 207.017105,257.169861 196.415436,256.991699 
	C196.078308,248.001266 196.078308,248.004944 187.345459,247.999451 
	C184.227249,247.997482 181.109024,247.973007 177.529022,247.908936 
	C174.373978,245.359283 174.624725,242.378036 176.292740,238.597168 
	C188.212082,237.951874 199.502167,238.077728 210.789017,237.940018 
	C214.026520,237.900513 215.143738,238.897125 215.057144,242.180298 
	C214.847137,250.143875 214.961807,258.115997 214.889267,266.550598 
z"/>
<path fill="#CFA89C" opacity="1.000000" stroke="none" 
	d="
M260.752136,142.788208 
	C252.931442,154.546982 256.941254,167.568848 255.999207,180.375305 
	C255.647491,181.277390 255.188538,181.507278 254.235046,181.428940 
	C253.640762,181.168655 253.434387,181.004349 253.002441,180.519226 
	C250.963837,174.094315 250.963196,174.137268 244.342972,174.039185 
	C241.554825,173.997879 238.683975,174.513474 235.523285,172.582397 
	C235.010773,171.025085 235.001831,170.029724 235.000504,169.034363 
	C234.991486,162.333496 234.990189,162.051453 228.361694,162.094864 
	C223.601471,162.126038 225.195190,158.949677 225.035522,156.668015 
	C224.865341,154.236053 224.338989,151.692017 228.530701,151.908325 
	C235.149063,152.249847 241.817474,151.690491 248.427185,152.107376 
	C253.049850,152.398956 254.768173,150.887009 254.022491,146.387192 
	C253.888794,145.580322 254.008514,144.731445 254.304703,143.088135 
	C256.598328,140.945374 258.567383,140.988953 260.752136,142.788208 
z"/>
<path fill="#DD986F" opacity="1.000000" stroke="none" 
	d="
M214.523666,209.709091 
	C214.888672,215.333191 214.944260,220.632629 214.990158,225.932159 
	C215.003403,227.461716 215.063034,228.993530 212.819000,228.979401 
	C204.536758,228.927292 196.253998,228.932098 187.972687,228.822113 
	C187.562210,228.816696 187.163406,227.932266 186.397461,227.290070 
	C183.472900,223.855347 185.684036,221.671234 188.087936,219.155029 
	C190.766815,216.752960 193.652298,216.940445 196.897369,217.058792 
	C202.933609,217.289566 202.933609,217.289566 205.061371,210.171844 
	C205.461975,209.631348 205.655502,209.433472 206.211853,209.013153 
	C209.216583,207.746399 211.797302,207.488449 214.523666,209.709091 
z"/>
<path fill="#7A7AAA" opacity="1.000000" stroke="none" 
	d="
M211.462646,142.894531 
	C210.997498,139.878357 210.998093,136.920944 210.997955,133.517487 
	C211.777039,131.836945 212.969070,131.429733 214.835022,131.346924 
	C223.753891,130.883774 232.199814,129.930252 240.988220,132.171799 
	C243.517807,135.615891 243.759872,138.823669 241.367157,142.472733 
	C231.307755,142.873810 221.618073,142.913559 211.462646,142.894531 
z"/>
<path fill="#EBB99B" opacity="1.000000" stroke="none" 
	d="
M254.021683,210.033875 
	C251.008789,209.993546 247.977737,209.981018 244.498703,209.903839 
	C240.986694,207.267197 242.091919,203.820358 242.108246,200.100861 
	C241.713608,195.312119 241.757614,191.012726 241.908066,186.720001 
	C242.162216,179.467819 246.385132,177.136307 253.655899,180.709686 
	C254.033691,181.056107 254.031662,180.968414 253.987823,180.967316 
	C254.400772,181.446732 255.130707,181.905258 255.206848,182.469315 
	C256.417084,191.434265 257.385651,200.406372 254.286728,209.661194 
	C253.943604,210.033020 254.003525,210.061691 254.021683,210.033875 
z"/>
<path fill="#CE6B62" opacity="1.000000" stroke="none" 
	d="
M235.679138,199.268616 
	C225.000610,200.078217 225.000793,200.078217 225.000320,190.183350 
	C225.000122,185.859344 225.264450,181.514191 224.921844,177.217438 
	C224.594467,173.111496 225.881500,171.317749 230.115860,171.967010 
	C231.416138,172.166397 232.772095,172.002548 234.559372,172.012726 
	C235.016190,172.020447 234.962708,172.002548 234.972107,171.975739 
	C235.901901,172.917572 236.905350,173.914520 236.919968,175.320618 
	C237.000595,183.077896 237.883972,190.857513 235.679138,199.268616 
z"/>
<path fill="#7A79A9" opacity="1.000000" stroke="none" 
	d="
M241.458252,142.892059 
	C240.998032,139.904816 240.998642,136.975571 240.998856,133.606262 
	C241.740295,130.178879 242.410477,127.163681 244.626816,124.348022 
	C247.595932,122.780449 250.285492,121.627495 253.770569,122.536858 
	C257.409546,129.211563 256.877258,135.749573 254.313965,142.693085 
	C253.990677,143.058975 253.981827,142.997269 254.012329,142.992859 
	C250.001587,142.975632 245.960312,142.962845 241.458252,142.892059 
z"/>
<path fill="#DE9870" opacity="1.000000" stroke="none" 
	d="
M182.694626,162.381042 
	C186.976486,162.045883 190.954117,162.030624 195.383759,162.022476 
	C195.888138,165.055130 195.940552,168.080673 195.981491,171.558716 
	C195.970032,172.011200 195.996979,171.951691 196.027802,171.962585 
	C195.823044,172.196182 195.615356,172.550369 195.339554,172.612961 
	C191.037720,173.589279 188.803589,176.599060 187.225235,180.789581 
	C186.973557,181.058517 186.975189,180.975204 187.016846,180.974365 
	C185.025635,183.071091 182.649353,183.392593 179.605362,182.102234 
	C177.902298,180.798050 177.376328,179.214432 177.911179,177.832382 
	C179.819550,172.901245 180.088242,167.499619 182.694626,162.381042 
z"/>
<path fill="#FFFFFF" opacity="1.000000" stroke="none" 
	d="
M112.448837,162.092712 
	C110.531448,162.110825 109.062256,162.012482 107.592690,162.006363 
	C100.463249,161.976715 98.791290,158.918930 102.573166,151.921844 
	C108.316010,148.639862 113.774475,149.332642 119.581810,151.639999 
	C119.924324,153.012299 119.990028,153.982010 119.995979,154.952103 
	C120.039085,161.976227 120.035263,161.976257 112.448837,162.092712 
z"/>
<path fill="#33323E" opacity="1.000000" stroke="none" 
	d="
M120.245003,151.981537 
	C114.565620,152.022324 109.244949,152.002243 103.462090,151.907959 
	C103.240891,150.758789 103.481895,149.683807 103.861450,148.304413 
	C105.644753,146.426682 106.277229,144.196243 107.944008,142.198212 
	C108.523987,141.878754 108.778381,141.786926 109.440155,141.634125 
	C113.531242,141.517624 117.189278,140.221390 121.318275,141.454346 
	C122.308434,141.710785 122.831657,141.955750 123.654678,142.566772 
	C125.067970,142.906052 126.135643,142.977188 127.600693,143.106903 
	C126.821686,147.172028 125.200325,150.802750 120.245003,151.981537 
z"/>
<path fill="#DD9870" opacity="1.000000" stroke="none" 
	d="
M188.974518,219.479370 
	C187.809128,222.001282 186.025452,223.775909 186.039246,226.752167 
	C183.720596,229.677567 180.643097,228.876907 176.979538,228.705017 
	C174.366501,225.439835 174.642929,222.418106 176.241638,218.983856 
	C177.255112,217.927597 178.125458,217.577255 179.583572,217.477325 
	C183.110413,217.456253 186.454178,215.756393 188.974518,219.479370 
z"/>
<path fill="#CF6B62" opacity="1.000000" stroke="none" 
	d="
M214.895752,209.577744 
	C212.170151,210.016113 209.503494,209.998520 206.388519,209.970856 
	C203.090424,207.047623 203.419083,203.928345 205.674683,200.322388 
	C206.009430,199.938995 206.019058,200.001541 205.988022,200.006134 
	C215.085175,199.978134 215.085175,199.978134 214.895752,209.577744 
z"/>
<path fill="#CC887B" opacity="1.000000" stroke="none" 
	d="
M214.901291,171.593719 
	C212.157898,172.021561 209.473694,171.992142 206.338593,171.937714 
	C205.924896,170.416199 205.984283,168.919846 205.995300,167.423141 
	C206.036774,161.777939 206.590881,161.383850 212.360321,161.959991 
	C214.228180,162.146530 215.071609,162.745422 215.003448,164.646790 
	C214.925980,166.807739 214.969543,168.973022 214.901291,171.593719 
z"/>
<path fill="#CB877B" opacity="1.000000" stroke="none" 
	d="
M243.537643,199.558289 
	C243.949310,202.909531 243.986816,205.927887 244.037521,209.392731 
	C235.003662,210.287872 235.003662,210.287872 234.996277,200.419891 
	C234.991241,199.960297 234.948288,199.991760 234.960052,200.015915 
	C237.488220,197.614944 240.212662,197.281967 243.537643,199.558289 
z"/>
<path fill="#FFFFFF" opacity="1.000000" stroke="none" 
	d="
M101.423462,181.021942 
	C101.073235,171.977493 101.073235,171.977493 110.502792,172.063492 
	C111.079124,180.993469 111.079124,180.993469 101.423462,181.021942 
z"/>
<path fill="#FFFFFF" opacity="1.000000" stroke="none" 
	d="
M130.633133,180.262802 
	C128.331848,180.940903 126.656815,180.857452 125.007027,181.024078 
	C121.573265,181.370926 119.675888,180.865173 119.814049,176.455460 
	C119.933784,172.633698 120.956085,171.415680 124.587967,171.963638 
	C126.053398,172.184753 127.579109,172.006302 129.534775,172.051987 
	C129.992157,172.094284 129.999344,172.015717 129.960068,172.011932 
	C132.257919,174.208649 132.430588,176.793320 130.633133,180.262802 
z"/>
<path fill="#CE897D" opacity="1.000000" stroke="none" 
	d="
M129.963242,190.965576 
	C129.921204,187.863937 129.959732,184.844406 129.996857,181.367981 
	C129.995453,180.911102 129.999023,180.991699 129.958740,180.993744 
	C132.519211,178.503021 135.412872,178.476913 138.911575,180.279694 
	C141.666534,183.679840 141.476913,186.986710 139.868530,190.828140 
	C136.865356,193.489777 133.986694,193.623657 130.589020,191.553528 
	C130.205521,191.211288 130.043808,191.047684 129.963242,190.965576 
z"/>
<path fill="#FEFDFE" opacity="1.000000" stroke="none" 
	d="
M176.961945,228.998520 
	C176.944412,231.677734 176.967957,234.358063 176.957367,237.482300 
	C176.923233,237.926208 176.968597,237.848724 176.930084,237.825653 
	C174.408997,240.590378 171.490234,240.474213 167.962570,238.762085 
	C165.526245,235.591629 165.502686,232.597839 167.201294,229.062866 
	C170.348251,226.476288 173.260498,226.317062 176.620026,228.723572 
	C177.002106,229.081818 177.003021,228.999649 176.961945,228.998520 
z"/>
<path fill="#33323D" opacity="1.000000" stroke="none" 
	d="
M244.799118,124.668968 
	C244.134415,127.811012 245.494492,131.402786 241.389984,133.097656 
	C232.677185,133.100845 224.355927,133.035507 215.574188,132.937195 
	C214.741440,132.594864 214.141159,132.294113 214.096390,131.906006 
	C213.566711,127.313828 210.070663,125.897736 206.234940,124.300926 
	C206.026154,95.620079 206.011276,67.252983 205.993103,38.413376 
	C214.999954,38.116623 214.999878,38.116623 215.000046,47.131622 
	C215.000290,61.064709 215.258316,75.005058 214.865662,88.927071 
	C214.722168,94.014709 216.138351,95.898689 221.115051,95.022774 
	C222.080200,94.852905 223.101166,95.000214 224.885681,95.223480 
	C228.558212,102.148270 227.196640,105.168259 220.321716,107.117775 
	C218.970016,107.501076 217.584412,107.833282 217.603119,109.495255 
	C217.625854,111.515892 219.273727,111.702408 220.808472,111.839966 
	C225.099243,112.224556 229.455795,111.343155 234.073181,112.652023 
	C234.664230,112.930428 234.888901,113.064110 235.396515,113.466652 
	C235.929871,114.353348 235.823181,113.494865 235.935364,114.141113 
	C236.735184,118.748535 238.178070,122.752953 243.782837,123.233475 
	C244.185837,123.268021 244.465790,123.886108 244.799118,124.668968 
z"/>
<path fill="#33323D" opacity="1.000000" stroke="none" 
	d="
M236.539429,85.898460 
	C240.979126,85.889465 244.988968,86.267845 248.933136,85.914085 
	C253.169312,85.534119 254.696259,87.039688 254.023682,91.138817 
	C253.864456,92.109245 253.994553,93.127144 253.688751,94.959450 
	C247.675491,98.344589 241.710831,96.785088 235.377365,96.870773 
	C231.784180,96.843590 228.509827,97.969597 225.342285,95.310547 
	C224.987671,94.987648 225.000549,95.000542 225.007431,95.007477 
	C224.968430,86.086067 224.968430,86.086067 236.539429,85.898460 
z"/>
<path fill="#33323D" opacity="1.000000" stroke="none" 
	d="
M206.034317,37.554314 
	C203.000488,38.010792 199.941849,38.011402 196.425690,38.024506 
	C193.248749,35.457123 193.419586,32.660854 195.687973,29.352154 
	C196.029495,28.971189 195.992218,29.004717 195.974213,29.022295 
	C196.619553,29.028250 197.282883,29.008743 197.946259,29.006208 
	C205.975372,28.975533 205.975372,28.976185 206.034317,37.554314 
z"/>
<path fill="#34323E" opacity="1.000000" stroke="none" 
	d="
M73.681091,218.280487 
	C63.326542,218.987091 53.626278,219.002991 43.462387,219.092667 
	C42.838665,219.140427 42.679260,219.097397 42.518383,219.090897 
	C34.991520,218.787201 34.991505,218.787567 35.259727,210.074432 
	C38.489666,207.091599 41.943062,207.933365 45.182358,207.974960 
	C49.103867,208.025330 52.192120,207.558075 52.253647,202.655334 
	C52.263863,201.841385 52.938992,201.164856 53.773502,200.251617 
	C54.042301,199.957886 53.998489,199.999817 53.977596,200.021790 
	C59.343590,196.374847 63.905731,197.628387 64.879364,203.667175 
	C65.705559,208.791458 70.028419,207.264374 73.005264,209.198792 
	C75.333817,211.984512 75.430649,214.716766 73.681091,218.280487 
z"/>
<path fill="#34333E" opacity="1.000000" stroke="none" 
	d="
M35.024117,209.974945 
	C25.000130,210.110641 25.000122,210.110641 25.000130,200.167953 
	C25.000132,195.219788 25.215679,190.258957 24.925659,185.327850 
	C24.726917,181.948761 25.580868,180.412308 29.185997,180.959183 
	C30.798569,181.203796 32.478539,181.004120 34.590286,181.027252 
	C35.052654,181.048431 34.999229,180.997528 34.972736,180.971848 
	C35.398987,181.431412 36.129414,181.891830 36.205566,182.455383 
	C37.418232,191.430038 38.388706,200.411926 35.287048,209.679260 
	C34.946423,210.054092 34.997322,210.000427 35.024117,209.974945 
z"/>
<path fill="#32313C" opacity="1.000000" stroke="none" 
	d="
M254.403168,210.019989 
	C253.959335,200.657623 253.975067,191.282211 253.967377,181.436508 
	C254.403275,180.965042 254.862564,180.963882 255.660400,180.898132 
	C257.067902,180.877167 258.136841,180.920807 259.602783,180.898926 
	C261.757355,180.925903 263.090027,181.159653 263.045471,183.589127 
	C262.902588,191.377502 262.921051,199.171295 263.038147,206.960571 
	C263.074829,209.398438 262.142883,210.205902 259.833649,210.021957 
	C258.186737,209.890778 256.520416,210.003235 254.403168,210.019989 
z"/>
<path fill="#33313D" opacity="1.000000" stroke="none" 
	d="
M254.428864,143.036789 
	C253.896622,136.553635 253.802551,130.048294 253.405594,123.246094 
	C251.960068,115.685585 246.807724,115.482704 241.112381,116.032730 
	C239.132812,116.223907 237.092468,116.081467 235.246307,114.225082 
	C234.960205,113.959953 234.990189,113.991142 235.005890,114.006012 
	C232.535614,111.637527 232.586761,108.825905 233.873505,105.444443 
	C235.957993,102.907066 238.509705,102.707153 240.985336,102.952583 
	C247.019943,103.550842 252.214844,102.999680 253.745331,95.284348 
	C254.029007,94.971703 253.992065,95.005005 253.974228,95.022476 
	C263.000366,94.925179 262.995758,94.925179 263.001648,104.142921 
	C263.007996,114.118462 263.024170,124.093994 263.101257,134.534149 
	C263.006592,137.299667 262.773346,139.589066 263.309418,141.891342 
	C263.630890,143.272034 262.381500,142.824387 261.358948,143.099182 
	C258.955048,143.116989 256.911041,143.065796 254.428864,143.036789 
z"/>
<path fill="#34323E" opacity="1.000000" stroke="none" 
	d="
M82.600891,247.447433 
	C73.000832,247.971298 73.000435,247.971298 73.000954,238.906769 
	C73.001320,232.575317 73.002937,226.243881 73.015396,219.441803 
	C73.026802,218.971191 73.000099,218.998062 72.987343,219.012039 
	C78.770477,215.208130 85.169960,216.138321 91.004509,217.986465 
	C95.145302,219.298126 94.307121,223.873657 93.322830,227.958679 
	C92.089531,230.093033 90.429115,230.885468 88.572388,230.959061 
	C84.754227,231.110413 84.114502,233.425552 84.067444,236.623032 
	C84.017052,240.046844 84.719643,243.565567 82.600891,247.447433 
z"/>
<path fill="#33323E" opacity="1.000000" stroke="none" 
	d="
M91.992096,257.010284 
	C91.317825,257.012695 90.651924,257.003387 89.986015,257.002319 
	C82.001366,256.989502 82.001366,256.989807 81.990204,248.472961 
	C81.983414,248.016464 82.000610,248.001465 82.008575,247.993317 
	C85.136551,245.169693 88.745522,245.019928 91.839355,247.396072 
	C94.795082,249.666138 94.734276,253.011627 92.375259,256.584717 
	C92.016190,256.985687 92.000458,257.002380 91.992096,257.010284 
z"/>
<path fill="#68538A" opacity="1.000000" stroke="none" 
	d="
M167.624847,237.525543 
	C170.678238,237.879501 173.349945,237.923477 176.456604,237.885025 
	C176.936646,240.857208 176.981705,243.911850 177.046997,247.412766 
	C161.718155,247.919617 146.369095,247.980164 130.558487,248.072861 
	C126.924370,245.298843 127.727539,241.972168 129.126328,238.165680 
	C131.931458,235.282257 135.063690,236.011337 138.568542,236.098114 
	C146.890274,235.614182 154.722900,235.873764 162.552994,235.907867 
	C164.217438,235.915115 165.913361,235.945206 167.624847,237.525543 
z"/>
<path fill="#7C7BAC" opacity="1.000000" stroke="none" 
	d="
M129.650101,237.729126 
	C129.969574,241.160004 130.005112,244.175217 130.068787,247.647720 
	C130.066971,250.780441 130.037018,253.455887 130.018066,256.580200 
	C126.993881,257.030731 123.958679,257.032379 120.471352,257.073792 
	C117.522110,259.501068 114.680412,259.430817 111.280182,258.026367 
	C109.588783,256.580719 109.127289,255.004883 108.817482,253.362030 
	C108.466179,251.499146 107.242386,250.691864 105.490555,250.157944 
	C98.685280,248.083878 97.391418,244.923874 100.623947,237.498764 
	C106.547432,234.635223 112.451424,236.087219 118.202377,235.929337 
	C121.923714,235.827179 125.902077,234.871048 129.650101,237.729126 
z"/>
<path fill="#69538B" opacity="1.000000" stroke="none" 
	d="
M100.905472,237.823486 
	C101.043083,239.290710 101.138435,240.454376 100.980507,241.582581 
	C100.323311,246.277542 101.724281,248.481033 107.035454,248.120346 
	C113.601479,247.674454 110.049759,253.127563 110.981613,256.416687 
	C108.177773,259.968445 105.043785,259.541138 101.393509,257.403198 
	C98.310555,257.043671 95.612625,257.019012 92.465439,256.990021 
	C91.798233,246.668274 93.468300,248.160736 82.471542,247.989960 
	C82.010674,243.551498 82.290268,239.093826 81.920113,234.690796 
	C81.535866,230.120087 83.185730,228.313797 87.703423,228.976440 
	C88.828590,229.141495 89.998734,228.999878 91.912781,229.195984 
	C93.510780,233.943222 96.438622,236.410019 100.905472,237.823486 
z"/>
<path fill="#CE897C" opacity="1.000000" stroke="none" 
	d="
M101.005203,257.519348 
	C104.030510,257.031189 107.052536,256.994049 110.524521,256.908813 
	C113.689621,256.919647 116.404747,256.978607 119.569550,257.075562 
	C119.958122,266.999268 119.958122,266.999268 110.181107,266.999847 
	C100.995453,267.000397 100.995453,267.000397 101.005203,257.519348 
z"/>
<path fill="#69548C" opacity="1.000000" stroke="none" 
	d="
M123.673141,123.639084 
	C125.999336,124.460503 129.188583,122.764656 129.720551,125.937294 
	C130.107925,128.247589 131.610687,131.539597 127.397041,133.025665 
	C126.546059,133.475998 126.059525,133.829453 125.109383,134.283783 
	C122.606766,135.221603 120.478653,135.064590 117.877136,134.800201 
	C112.060532,134.833008 106.604668,136.409775 101.168961,133.300354 
	C100.928940,131.405884 100.875214,129.899307 101.019333,128.411926 
	C101.318275,125.326660 100.323746,123.503227 96.897865,124.013847 
	C92.766884,124.629562 91.916222,122.616730 91.933678,118.867142 
	C92.057716,92.220825 91.996651,65.573647 91.990829,38.457253 
	C94.699310,37.995640 97.411514,38.003513 100.915161,38.248230 
	C102.606850,45.895275 107.589630,46.653976 113.637894,45.970078 
	C115.722588,45.734356 117.934692,45.805298 119.861153,47.786453 
	C120.049248,50.828320 120.038017,53.519382 119.829498,56.969757 
	C119.121635,58.157112 118.562813,58.622177 117.913094,58.652084 
	C114.176895,58.824047 112.668976,60.794041 112.993004,64.431000 
	C113.079582,65.402756 112.672821,66.380722 112.816864,67.788162 
	C113.359116,76.714561 113.264236,85.232925 112.889282,94.195175 
	C113.373856,101.713219 113.169922,108.801178 113.091011,115.878822 
	C113.045387,119.970123 114.434921,122.139282 118.768730,121.930847 
	C120.417191,121.851570 122.079758,122.053329 123.673141,123.639084 
z"/>
<path fill="#7D7CAD" opacity="1.000000" stroke="none" 
	d="
M65.348206,143.373932 
	C58.303543,143.113480 51.607540,143.061203 44.441208,143.019043 
	C43.981255,134.745682 44.119934,126.459389 43.938110,118.180130 
	C43.866596,114.923805 44.923817,113.784706 48.183720,113.943604 
	C52.811287,114.169167 57.458427,113.993057 62.568718,113.974197 
	C63.027000,115.289246 62.836842,116.645355 63.032387,117.943344 
	C63.730152,122.575012 62.223251,124.799957 57.189640,124.053459 
	C53.383308,123.488960 54.120323,126.442307 53.991180,128.670746 
	C53.841988,131.245316 54.033863,133.107300 57.548100,133.063095 
	C66.511200,132.950287 75.478668,133.184677 84.741501,133.581436 
	C87.487488,136.449997 86.936722,138.912582 84.390503,141.576630 
	C79.137123,144.245224 73.928467,142.393845 68.459518,143.108093 
	C67.293320,143.652863 66.531837,143.820465 65.348206,143.373932 
z"/>
<path fill="#7C7CAD" opacity="1.000000" stroke="none" 
	d="
M84.373817,142.041412 
	C84.340805,139.459869 84.679626,137.085526 85.028534,134.296951 
	C89.928612,132.088684 95.009583,133.433350 100.436920,132.938660 
	C106.283302,132.947418 111.673523,132.991074 117.530975,133.054474 
	C120.087624,135.899475 118.029800,137.546631 116.273582,139.340179 
	C114.431267,141.221664 111.761009,141.193863 109.313004,142.603760 
	C108.835617,142.889511 108.668556,142.944504 108.251022,143.082382 
	C107.057350,144.090530 106.114731,145.017365 104.324272,144.153610 
	C100.134125,142.027466 95.986015,143.460968 91.976906,143.000793 
	C89.569199,142.724426 87.036385,143.651245 84.373817,142.041412 
z"/>
<path fill="#69548C" opacity="1.000000" stroke="none" 
	d="
M62.584866,95.504585 
	C65.987701,95.094040 69.043198,95.044708 72.555878,94.991501 
	C73.008781,96.470482 73.164330,97.974663 72.969925,99.432175 
	C72.409515,103.633667 73.828346,105.673187 78.354134,105.035133 
	C82.164436,104.497932 81.956398,107.192101 82.035339,109.790253 
	C82.118958,112.542274 81.485855,114.158699 78.250916,114.040321 
	C73.479332,113.865723 68.696297,114.003754 63.448318,114.015182 
	C62.983631,111.328308 62.988770,108.634872 62.990208,105.493645 
	C60.381176,102.178024 60.277477,99.106102 62.584866,95.504585 
z"/>
<path fill="#E19A71" opacity="1.000000" stroke="none" 
	d="
M73.291367,210.397552 
	C71.915855,210.054764 70.934273,210.007309 69.952446,210.001617 
	C63.310802,209.963013 63.132050,209.967346 63.078136,203.427887 
	C63.053738,200.468475 61.907738,199.723892 59.292332,199.976273 
	C57.831837,200.117218 56.347099,200.006912 54.414993,200.026794 
	C53.967762,190.996338 53.978821,181.948898 53.974842,172.430389 
	C59.090855,171.973526 64.226219,172.118591 69.351219,171.949432 
	C72.120064,171.858047 73.169464,172.706543 73.052666,175.574707 
	C72.857513,180.366608 73.010941,185.172729 73.049286,190.433716 
	C73.384750,191.276901 73.910133,191.631485 73.960854,192.043884 
	C74.532410,196.690567 77.733154,198.328400 82.137543,199.278976 
	C82.666176,199.767136 82.852150,200.000458 83.237457,200.651855 
	C84.336784,204.492172 84.923615,208.040070 81.852753,210.597458 
	C79.386398,212.651398 76.437477,212.640823 73.291367,210.397552 
z"/>
<path fill="#D26D64" opacity="1.000000" stroke="none" 
	d="
M82.450386,199.635895 
	C81.732948,199.968491 81.407486,199.979630 81.081955,199.982498 
	C72.943779,200.054245 72.943779,200.054077 73.058441,191.352753 
	C75.754402,190.933212 78.427856,190.971848 81.545868,191.023773 
	C81.990425,191.037064 81.947510,191.006912 81.959389,190.983185 
	C84.434570,193.516525 84.660660,196.306931 82.450386,199.635895 
z"/>
<path fill="#33323E" opacity="1.000000" stroke="none" 
	d="
M104.029991,144.298340 
	C105.131355,143.622070 106.222466,143.357269 107.657059,143.128876 
	C108.024841,145.531448 106.988480,147.151672 104.342209,147.940155 
	C104.006577,146.903275 104.013161,145.806549 104.029991,144.298340 
z"/>
<path fill="#34323E" opacity="1.000000" stroke="none" 
	d="
M64.984375,143.519379 
	C65.750244,143.128174 66.500946,143.090591 67.624298,143.109344 
	C67.491638,145.163940 66.977905,147.156265 64.334312,147.940613 
	C64.323074,146.624329 64.646141,145.248672 64.984375,143.519379 
z"/>
<path fill="#7C7BAC" opacity="1.000000" stroke="none" 
	d="
M195.559067,28.983356 
	C196.015411,31.690605 196.001328,34.410023 195.977692,37.583221 
	C195.968155,38.037003 196.002136,38.003002 196.017517,37.984547 
	C194.497696,39.812466 192.407150,40.111183 190.182465,40.118195 
	C165.444321,40.196186 140.706238,40.228970 115.968224,40.090973 
	C114.475937,40.082645 112.970581,40.025932 111.187225,38.952812 
	C108.592751,35.833836 108.262497,32.916229 110.687447,29.508430 
	C139.074371,29.091841 167.081512,29.043682 195.559067,28.983356 
z"/>
<path fill="#69548C" opacity="1.000000" stroke="none" 
	d="
M110.609680,29.095520 
	C111.053947,31.755255 111.040649,34.370510 111.044922,37.422707 
	C108.200287,40.992619 105.032333,40.567619 101.352074,38.313972 
	C100.967087,37.966923 100.997261,37.997765 101.012573,38.013359 
	C101.017197,35.315514 101.006508,32.602074 100.992523,29.436974 
	C104.043518,29.007223 107.097824,29.029133 110.609680,29.095520 
z"/>
<path fill="#7D7CAE" opacity="1.000000" stroke="none" 
	d="
M48.653023,96.394073 
	C51.024544,95.577423 52.983196,94.606728 55.597267,95.108917 
	C58.696362,97.965065 58.698299,100.976585 56.350952,104.489822 
	C53.251850,104.882004 50.470207,105.552010 47.411537,104.247086 
	C45.134766,101.226753 46.763317,98.931709 48.653023,96.394073 
z"/>
<path fill="#7D7CAD" opacity="1.000000" stroke="none" 
	d="
M56.432240,104.892685 
	C55.998653,101.903831 55.998970,98.972939 55.998814,95.603668 
	C58.022751,95.124008 60.047161,95.082733 62.501884,95.092415 
	C62.953266,98.140968 62.974327,101.138557 62.990952,104.591003 
	C60.946388,105.014114 58.906261,104.982391 56.432240,104.892685 
z"/>
<path fill="#7D7DAE" opacity="1.000000" stroke="none" 
	d="
M48.664780,95.984146 
	C49.457199,98.848152 48.248775,101.100555 47.083931,103.750351 
	C41.659634,102.956726 44.922028,98.625847 43.980679,95.401505 
	C45.448601,95.121880 47.043362,94.660889 48.664780,95.984146 
z"/>
<path fill="#F2BE9F" opacity="1.000000" stroke="none" 
	d="
M35.417812,210.032257 
	C34.961044,200.665878 34.975670,191.277664 34.968269,181.417816 
	C44.001308,181.098297 44.001308,181.098297 44.000626,190.032608 
	C44.000599,190.364487 44.000572,190.696350 44.000534,191.028229 
	C43.999512,200.014236 43.999508,200.014236 53.581276,199.975952 
	C53.905464,209.997452 53.905464,209.996780 43.883663,209.999832 
	C41.218842,210.000641 38.554024,210.006760 35.417812,210.032257 
z"/>
<path fill="#FFFFFF" opacity="1.000000" stroke="none" 
	d="
M158.180405,113.746262 
	C155.267807,113.982788 152.616013,113.988678 149.522385,113.985458 
	C147.985977,113.144913 147.285324,112.054329 147.096695,110.696274 
	C146.827545,108.758369 146.309875,107.158043 143.855911,107.230621 
	C141.326782,107.305420 141.192917,109.191788 140.842316,110.976486 
	C140.648880,111.961136 140.196716,112.828217 139.180389,113.745819 
	C136.249954,113.981644 133.580414,113.986954 130.465271,113.979271 
	C126.219788,108.320099 127.764954,102.304840 129.093155,95.991997 
	C132.009247,92.048607 135.915634,93.149574 139.470978,92.864639 
	C141.843063,92.674530 145.098969,93.897064 146.207855,91.061577 
	C147.600769,87.499840 147.234711,83.537468 146.301834,79.781769 
	C146.042694,78.738419 144.927719,78.421753 143.901611,78.275360 
	C142.579483,78.086739 141.246994,78.122383 139.917160,78.115997 
	C132.307495,78.079460 132.242004,78.215263 132.076797,85.907127 
	C132.014297,88.816879 132.864426,91.965805 130.189941,94.790863 
	C127.266396,97.662766 124.220093,97.343925 120.638412,96.192429 
	C119.938126,95.777313 119.681641,95.571136 119.145821,94.956558 
	C117.387787,85.433220 116.947731,76.327156 119.427628,66.861267 
	C121.697472,64.853065 124.051826,64.877274 126.377724,64.868713 
	C144.305695,64.802773 162.233765,64.796638 180.161636,64.879204 
	C182.286942,64.888992 184.535233,64.653252 186.621628,66.739487 
	C186.982162,67.089890 186.983368,67.016609 186.946716,67.017120 
	C187.380890,67.482880 188.112213,67.931984 188.192429,68.497665 
	C189.413773,77.110420 190.444382,85.732010 187.261887,94.619820 
	C186.910080,94.982376 186.983490,94.983521 186.982941,94.946815 
	C184.350266,97.606514 181.370056,97.604843 177.848877,95.764313 
	C173.978012,92.797600 175.181641,88.893089 174.867767,85.361305 
	C174.658081,83.001678 175.862778,79.730972 172.938553,78.719185 
	C169.358826,77.480606 165.419968,77.683548 161.692154,78.770638 
	C160.657700,79.072311 160.408539,80.200981 160.267517,81.216225 
	C160.107239,82.370125 160.129593,83.532120 160.117676,84.692451 
	C160.035873,92.650284 160.200348,92.759735 167.998413,92.917770 
	C171.062408,92.979874 174.398956,92.140930 177.199524,95.217255 
	C180.130646,101.422073 179.945145,107.329453 177.316711,113.610306 
	C174.309296,113.975601 171.639389,113.984947 168.525513,113.985291 
	C166.986145,113.145531 166.285583,112.054855 166.096802,110.696762 
	C165.827423,108.758987 165.310211,107.158165 162.856018,107.230690 
	C160.326706,107.305428 160.192917,109.191963 159.842377,110.976738 
	C159.648987,111.961510 159.196533,112.828461 158.180405,113.746262 
z"/>
<path fill="#33323E" opacity="1.000000" stroke="none" 
	d="
M100.978310,38.425819 
	C104.027122,37.961132 107.087151,37.955341 110.604843,37.904602 
	C139.072128,37.901554 167.081772,37.943455 195.562164,37.975723 
	C195.936691,48.005863 195.936691,47.999561 185.717545,48.002571 
	C164.139664,48.008926 142.561768,48.022564 120.522179,48.085236 
	C115.620895,48.090683 111.159554,47.751286 106.747803,48.079140 
	C102.254463,48.413063 100.277710,46.942951 100.976379,42.335003 
	C101.146942,41.210106 100.993828,40.036129 100.978310,38.425819 
z"/>
<path fill="#33323D" opacity="1.000000" stroke="none" 
	d="
M186.989044,66.627068 
	C164.956604,67.058365 142.931061,67.026840 120.063919,66.697670 
	C117.470345,63.451229 117.359657,60.545334 119.770782,57.361301 
	C120.091751,57.025639 120.025352,57.051445 120.043541,57.082920 
	C140.979248,57.077065 161.897202,57.098568 182.813828,56.940941 
	C186.068253,56.916420 187.393890,57.915878 187.031570,61.187096 
	C186.849899,62.827335 186.997330,64.504036 186.989044,66.627068 
z"/>
<path fill="#33323D" opacity="1.000000" stroke="none" 
	d="
M187.370453,94.988708 
	C186.936890,85.971481 186.963684,76.960587 186.950287,67.483658 
	C196.000595,66.965775 196.000656,66.965775 196.000717,75.793053 
	C196.000748,80.456314 195.737061,85.139008 196.078934,89.777061 
	C196.384705,93.925461 195.019897,95.672699 190.825211,95.022476 
	C189.849121,94.871170 188.830093,94.996826 187.370453,94.988708 
z"/>
<path fill="#33323D" opacity="1.000000" stroke="none" 
	d="
M176.974075,95.476463 
	C179.984970,95.047508 183.030396,95.018944 186.529114,94.950241 
	C186.988495,99.376778 186.705795,103.867889 187.081085,108.303314 
	C187.463852,112.827011 185.974792,114.760941 181.365219,114.027016 
	C180.235382,113.847130 179.053360,113.995010 177.437256,113.979233 
	C176.988998,107.936462 176.998810,101.906654 176.974075,95.476463 
z"/>
<path fill="#68538A" opacity="1.000000" stroke="none" 
	d="
M205.582047,123.990585 
	C206.373383,123.990158 206.705750,123.994019 207.038101,123.996002 
	C216.487274,124.052391 214.742844,123.367935 215.077637,132.460144 
	C214.015686,132.943909 212.917618,132.983582 211.408417,133.047333 
	C207.181168,133.043472 203.361649,132.903763 199.549988,133.020599 
	C196.090927,133.126617 196.000381,130.976181 195.970749,128.448898 
	C195.940002,125.826744 196.278046,123.775482 199.648514,123.987000 
	C201.466339,124.101082 203.297775,123.998718 205.582047,123.990585 
z"/>
<path fill="#68538A" opacity="1.000000" stroke="none" 
	d="
M181.108887,124.005127 
	C183.469269,124.351814 186.308578,122.964737 186.793823,126.121071 
	C187.121658,128.253448 188.107239,131.195526 185.731735,132.469635 
	C183.474243,133.680420 180.351456,133.718903 178.103210,132.392410 
	C176.046814,131.179108 177.076660,128.473816 177.112854,126.407059 
	C177.153458,124.089302 178.963058,124.051468 181.108887,124.005127 
z"/>
<path fill="#68538B" opacity="1.000000" stroke="none" 
	d="
M158.353882,113.983322 
	C157.946304,112.987953 157.991165,111.999084 157.996765,111.010010 
	C158.029205,105.279266 160.901855,103.309792 166.514847,105.012146 
	C167.769318,105.392609 167.982346,106.084007 167.985855,107.130005 
	C167.992508,109.109558 168.004303,111.089088 168.047760,113.522461 
	C166.992538,113.992371 165.903549,114.008438 164.406616,114.048080 
	C162.261856,114.044334 160.525009,114.017029 158.353882,113.983322 
z"/>
<path fill="#7C7CAD" opacity="1.000000" stroke="none" 
	d="
M123.998528,123.482849 
	C110.999725,124.223656 110.999146,124.223656 110.999969,111.382057 
	C111.000305,106.220688 111.003777,101.059311 111.009453,95.426476 
	C113.614189,92.548531 116.375938,92.278496 119.700836,94.656921 
	C120.089363,94.982880 120.015945,94.984161 120.016373,94.947449 
	C122.467781,97.063225 122.025330,99.984077 122.102180,102.766602 
	C122.201698,106.369507 121.612892,110.087463 123.934990,113.747070 
	C123.998833,117.123932 123.999008,120.082382 123.998528,123.482849 
z"/>
<path fill="#33323E" opacity="1.000000" stroke="none" 
	d="
M124.425461,114.107285 
	C120.695099,114.473663 119.800865,112.830345 119.945724,109.741409 
	C120.162308,105.123138 120.004288,100.487297 120.011208,95.384827 
	C123.061798,94.943398 126.106789,94.976059 129.537766,94.974411 
	C129.949890,100.972458 129.976028,107.004814 130.010910,113.501724 
	C128.297180,113.993881 126.574715,114.021484 124.425461,114.107285 
z"/>
<path fill="#69538B" opacity="1.000000" stroke="none" 
	d="
M139.380814,113.983002 
	C138.946213,112.987465 138.991119,111.998695 138.996719,111.009705 
	C139.029251,105.279945 141.903961,103.309135 147.514679,105.012512 
	C148.768646,105.393196 148.982086,106.084702 148.985626,107.130623 
	C148.992325,109.109993 149.004044,111.089340 149.047104,113.522522 
	C146.001083,113.980789 142.921616,113.985222 139.380814,113.983002 
z"/>
<path fill="#7C7BAC" opacity="1.000000" stroke="none" 
	d="
M124.736458,133.346313 
	C125.443748,133.064728 125.888138,133.053055 126.665565,133.058578 
	C126.752434,135.202148 126.671593,137.395737 124.063614,138.638718 
	C122.634201,136.608566 123.119522,135.021576 124.736458,133.346313 
z"/>
<path fill="#7C7BAC" opacity="1.000000" stroke="none" 
	d="
M124.000191,142.451813 
	C123.555046,142.868668 123.109802,142.902451 122.332550,142.885391 
	C120.722336,140.961502 120.491714,139.376053 123.583160,138.794098 
	C124.000031,140.022919 124.000061,141.045837 124.000191,142.451813 
z"/>
<path fill="#33323D" opacity="1.000000" stroke="none" 
	d="
M205.540726,199.963364 
	C206.001007,202.977676 205.992569,206.016342 205.962158,209.507904 
	C205.940186,209.960770 205.983353,209.978470 205.975739,209.957245 
	C204.844391,211.165100 203.508179,211.885605 201.317200,211.690094 
	C197.421707,212.142654 193.990234,212.310257 190.079041,211.803467 
	C179.034393,212.298706 168.448517,212.144913 157.864929,212.159302 
	C155.876724,212.162018 153.890625,212.122543 151.419937,211.914062 
	C133.053909,212.444351 115.174652,212.192383 97.298546,212.043976 
	C90.806213,211.990067 89.085983,209.012970 91.273926,200.763443 
	C104.344986,200.010406 116.727997,199.984711 129.579346,199.900085 
	C130.922760,199.105072 131.748566,198.196503 132.963058,198.140228 
	C140.308792,197.799789 147.659286,197.357010 154.986450,198.423920 
	C155.480850,198.495911 155.823273,198.919342 156.610443,199.517502 
	C173.023178,199.884811 189.047592,199.936279 205.540726,199.963364 
z"/>
<path fill="#33323D" opacity="1.000000" stroke="none" 
	d="
M139.407227,191.319611 
	C139.076828,187.897476 139.043213,184.884430 139.285767,181.061462 
	C142.198517,178.341049 145.159500,178.987610 148.494171,179.195953 
	C151.809891,178.973175 154.694794,178.747604 158.032837,178.670700 
	C163.217773,179.156815 167.969437,178.686996 172.711639,178.896942 
	C174.655930,178.983002 176.687943,178.738876 178.644241,180.542984 
	C181.387390,180.886765 183.774490,180.940292 186.610046,180.983673 
	C186.869217,190.998657 186.869217,190.995239 176.888840,190.999893 
	C170.568253,191.002838 164.247681,191.017807 157.462952,191.096985 
	C151.332993,194.403076 145.540939,193.756485 139.407227,191.319611 
z"/>
<path fill="#EFBC9E" opacity="1.000000" stroke="none" 
	d="
M138.659271,190.935211 
	C144.764313,190.950378 150.418182,190.990234 156.535446,191.098328 
	C156.999008,193.766708 156.999191,196.366852 156.999054,199.400177 
	C148.322876,199.879837 139.646988,199.926315 130.509399,199.906952 
	C130.058472,197.246796 130.069260,194.652481 130.142792,191.634705 
	C132.873062,191.127487 135.540588,191.043686 138.659271,190.935211 
z"/>
<path fill="#33323D" opacity="1.000000" stroke="none" 
	d="
M187.430847,181.033813 
	C186.980453,180.726257 186.991959,180.393997 186.993607,180.061722 
	C187.033401,172.010208 187.033203,172.010208 195.599640,171.983490 
	C196.042282,172.305923 196.014709,172.638229 196.011246,172.970810 
	C195.927933,180.982376 195.928391,180.982376 187.430847,181.033813 
z"/>
<path fill="#DF9970" opacity="1.000000" stroke="none" 
	d="
M158.270889,179.987717 
	C155.390793,181.572144 152.589310,180.840683 149.453522,180.899780 
	C148.668121,180.503128 148.070816,180.185516 148.028473,179.783600 
	C147.510483,174.869156 143.907578,173.775894 139.440887,172.592560 
	C139.083023,161.999664 139.083023,161.996750 149.262421,162.001724 
	C151.884796,162.003006 154.507172,162.028946 157.602066,162.068146 
	C158.763977,162.804230 159.684372,163.547104 159.644836,164.525650 
	C159.475983,168.703720 162.186478,170.123886 165.836151,171.257660 
	C166.440628,171.910431 166.624008,172.373245 166.637909,173.265564 
	C166.413696,174.105881 166.145416,174.511292 165.470795,175.026978 
	C163.383469,175.860641 161.308472,175.933136 159.958191,178.031708 
	C159.511505,178.921402 159.102859,179.435562 158.270889,179.987717 
z"/>
<path fill="#DE9970" opacity="1.000000" stroke="none" 
	d="
M158.235397,180.454407 
	C157.976517,179.341904 157.987213,178.561279 157.998962,177.390320 
	C159.642853,175.732697 161.892838,175.789780 163.756439,174.236389 
	C164.444443,174.000000 164.888901,174.000000 165.666672,174.000000 
	C168.038544,173.673996 169.344315,172.161057 171.153137,170.820007 
	C173.674271,169.974365 175.099426,168.717911 175.062912,166.150879 
	C175.044296,164.843170 175.477264,163.586212 176.687119,162.349854 
	C178.659378,162.070953 180.395569,162.046387 182.565308,162.041473 
	C183.844650,168.548264 181.146866,174.256760 179.018341,180.463760 
	C172.168518,180.817581 165.336746,180.801926 158.235397,180.454407 
z"/>
<path fill="#EBC088" opacity="1.000000" stroke="none" 
	d="
M176.462616,162.064117 
	C176.948029,163.753357 176.810944,165.432861 177.029510,167.064743 
	C177.580627,171.179611 175.574127,172.454147 171.424591,172.042480 
	C169.673706,173.014877 168.289703,173.486603 166.365173,172.335968 
	C165.173218,172.039764 164.329651,171.906982 163.522018,172.023407 
	C159.144440,172.654449 157.356644,170.816971 157.977310,166.455399 
	C158.139008,165.319077 158.018570,164.142624 158.051147,162.538666 
	C164.050400,162.072708 170.026215,162.052689 176.462616,162.064117 
z"/>
<path fill="#33323D" opacity="1.000000" stroke="none" 
	d="
M139.020203,180.981323 
	C136.302689,180.975571 133.567032,180.987274 130.374908,180.997375 
	C129.942810,178.298706 129.967178,175.601639 129.956177,172.456360 
	C132.633911,172.011032 135.347046,172.013931 138.510040,172.038879 
	C138.959930,172.060913 138.978622,172.017563 138.956970,172.024902 
	C141.447845,174.585724 141.719086,177.331314 139.304016,180.656113 
	C138.965942,181.034042 139.002029,180.998810 139.020203,180.981323 
z"/>
<path fill="#34323E" opacity="1.000000" stroke="none" 
	d="
M82.036636,199.968658 
	C82.036331,197.261459 82.014214,194.561707 81.981689,191.410706 
	C82.632401,190.972534 83.293503,190.994186 83.954681,190.997375 
	C92.011856,191.036057 92.011856,191.035355 91.976250,199.578674 
	C91.961975,200.036087 91.996452,199.999313 92.015518,199.982849 
	C89.125740,202.671555 86.025345,202.740372 82.400070,200.287537 
	C82.032837,199.935349 82.014839,199.976105 82.036636,199.968658 
z"/>
<path fill="#33313C" opacity="1.000000" stroke="none" 
	d="
M243.949097,199.430634 
	C241.231064,199.931046 238.550339,199.970947 235.420731,200.025452 
	C234.980072,190.990952 234.988312,181.941818 234.989044,172.420807 
	C239.635498,171.965881 244.314728,172.289886 248.936035,171.909714 
	C253.188004,171.559921 254.694977,173.053284 254.026154,177.148529 
	C253.867569,178.119614 254.006729,179.139313 254.021317,180.596375 
	C243.996246,180.876740 243.997238,180.876740 243.998169,191.019852 
	C243.998413,193.669937 243.990540,196.320023 243.949097,199.430634 
z"/>
<path fill="#CF6B63" opacity="1.000000" stroke="none" 
	d="
M189.676605,210.380051 
	C193.359726,210.126221 196.724442,210.086212 200.543976,210.106339 
	C203.329361,213.819565 201.331024,216.220642 198.308929,218.676910 
	C195.257706,219.229919 192.421463,218.491455 189.378998,219.807678 
	C186.473602,218.173080 183.580811,219.358582 180.441895,218.956177 
	C178.258301,214.422211 181.965454,213.363403 184.675400,211.872498 
	C186.058548,211.111526 187.888412,211.394012 189.676605,210.380051 
z"/>
<path fill="#CF6B62" opacity="1.000000" stroke="none" 
	d="
M198.448853,218.959152 
	C198.991333,216.256470 199.978302,213.572861 200.982025,210.527863 
	C202.378906,210.105377 203.759018,210.044266 205.553635,209.959595 
	C205.976929,210.582947 205.990982,211.229828 205.993698,211.876755 
	C206.023697,219.006943 206.023224,219.006943 198.448853,218.959152 
z"/>
<path fill="#7A7AAA" opacity="1.000000" stroke="none" 
	d="
M234.974228,114.419647 
	C239.121292,113.972755 243.282364,113.990898 247.443466,113.997177 
	C254.702362,114.008125 255.281754,114.837723 253.105316,122.544029 
	C250.792175,124.209938 248.433502,125.298111 245.285751,125.025558 
	C244.131744,124.709297 243.410995,124.197464 242.633499,124.087685 
	C235.021484,123.012939 235.018799,123.031998 234.974228,114.419647 
z"/>
<path fill="#7C7CAC" opacity="1.000000" stroke="none" 
	d="
M124.062286,138.627472 
	C122.204315,139.322205 121.996880,140.655746 122.004227,142.481476 
	C117.974480,142.873505 113.948410,142.912460 109.462509,142.892960 
	C109.210876,140.790543 110.935402,140.457947 112.357658,139.593018 
	C114.683212,138.178772 117.720139,137.277023 117.983368,133.433411 
	C120.040543,133.058731 122.082893,133.043274 124.562302,133.052094 
	C124.707756,134.802582 124.416161,136.528763 124.062286,138.627472 
z"/>
<path fill="#33323D" opacity="1.000000" stroke="none" 
	d="
M177.001328,228.623749 
	C174.300781,229.060013 171.599442,229.038208 168.453888,229.090073 
	C166.762009,230.369324 165.313553,231.066956 163.536819,231.052750 
	C155.886948,230.991577 148.224701,231.644989 140.140717,230.437531 
	C139.403610,230.059570 139.117203,229.888596 138.485718,229.351532 
	C136.458481,225.779953 136.517197,222.548111 138.294647,218.889587 
	C141.508942,216.137787 144.926636,217.078827 148.676880,217.084579 
	C156.191772,216.769272 163.225830,216.775162 170.259430,216.884018 
	C172.362503,216.916565 174.563950,216.681320 176.631927,218.647949 
	C176.950851,222.085114 176.975693,225.125412 177.001328,228.623749 
z"/>
<path fill="#D06B63" opacity="1.000000" stroke="none" 
	d="
M177.310593,219.031097 
	C167.928040,219.015244 158.930069,218.985657 149.467194,218.894836 
	C147.289261,215.747147 148.896088,213.240189 150.708801,210.442291 
	C163.687653,210.125748 176.376465,210.085480 189.530151,210.105728 
	C189.465668,212.337601 187.532562,212.575470 185.859360,213.209213 
	C183.323105,214.169876 181.149536,215.574615 180.066223,218.603775 
	C179.235214,218.966370 178.465210,218.991852 177.310593,219.031097 
z"/>
<path fill="#EED778" opacity="1.000000" stroke="none" 
	d="
M138.566193,229.278503 
	C148.334183,228.980545 157.708435,229.004166 167.546158,229.095764 
	C168.007568,231.765701 168.005493,234.367676 168.004974,237.402588 
	C158.657410,237.883667 149.308273,237.931808 139.493301,237.946228 
	C136.483994,235.373993 136.383423,232.584213 138.566193,229.278503 
z"/>
<path fill="#675289" opacity="1.000000" stroke="none" 
	d="
M235.341263,104.665955 
	C235.011108,107.736115 235.010071,110.428749 235.015320,113.571129 
	C229.414780,114.008827 223.806671,113.920525 218.201599,114.014015 
	C214.966461,114.067970 214.881378,112.009132 215.013794,109.737030 
	C215.129974,107.743553 214.328064,105.427605 217.715881,104.968399 
	C225.026352,103.977501 225.007996,103.842041 224.991684,95.444794 
	C228.043243,95.011414 231.098816,95.035164 234.611298,95.101357 
	C237.763824,98.027710 237.656525,101.096199 235.341263,104.665955 
z"/>
<path fill="#7A7AAA" opacity="1.000000" stroke="none" 
	d="
M235.479248,105.028641 
	C235.017746,102.039093 235.023346,99.034698 235.048584,95.587044 
	C241.075119,95.093124 247.082016,95.042458 253.558960,94.981750 
	C253.937927,105.001663 253.937927,105.000847 243.853256,105.002228 
	C241.217636,105.002594 238.582001,105.009758 235.479248,105.028641 
z"/>
<path fill="#D16C64" opacity="1.000000" stroke="none" 
	d="
M150.533630,210.105713 
	C151.236359,213.016113 150.852646,215.722580 149.080505,218.479874 
	C145.992310,218.892670 142.982330,218.951767 139.522888,219.027069 
	C137.506195,220.808167 135.440384,221.091003 133.233032,221.106003 
	C128.953323,221.135040 124.667244,221.268250 120.395935,221.091064 
	C116.101158,220.912918 112.821205,221.654617 112.756096,226.916229 
	C112.746338,227.704803 112.176079,228.441666 111.404449,229.482529 
	C104.938049,231.692215 98.815567,232.203766 92.363312,229.276550 
	C91.999214,228.931396 92.003166,228.997940 92.036552,228.996796 
	C91.855591,218.996765 91.855591,218.996536 81.840355,219.002197 
	C79.198456,219.003693 76.556549,219.007095 73.444626,219.017822 
	C72.972855,216.340408 72.971115,213.654816 72.933472,210.526047 
	C82.701622,209.624207 81.940468,211.936020 82.024773,200.395950 
	C85.063148,199.953430 88.093468,199.971512 91.579178,199.977997 
	C91.933456,210.000229 91.933456,209.995148 101.741051,210.001663 
	C117.850166,210.012375 133.959290,210.030426 150.533630,210.105713 
z"/>
<path fill="#33323D" opacity="1.000000" stroke="none" 
	d="
M91.999634,229.389252 
	C98.031204,228.939407 104.063194,228.947449 110.561882,228.896179 
	C111.792961,228.214951 112.494431,227.315155 113.487328,227.251511 
	C121.359970,226.746796 129.239441,226.266449 137.091492,227.530823 
	C137.584763,227.610245 137.910416,228.064362 138.671173,228.704590 
	C139.043472,229.043427 139.001541,229.000351 138.980743,228.978638 
	C138.974579,231.647125 138.989227,234.337326 139.015656,237.470001 
	C136.299377,237.959579 133.571289,238.006653 130.388626,238.099274 
	C120.618416,238.109894 111.302803,238.074997 101.525696,238.091721 
	C100.738426,238.112564 100.413193,238.063644 100.086761,238.053589 
	C92.002693,237.804794 92.002670,237.805527 91.999634,229.389252 
z"/>
<path fill="#34323E" opacity="1.000000" stroke="none" 
	d="
M120.049461,94.516785 
	C117.365036,94.984230 114.640717,94.985580 111.464737,94.970970 
	C111.010483,85.962204 111.007874,76.969406 111.009064,67.510773 
	C113.575256,64.561607 116.323280,64.276863 119.647995,66.685822 
	C120.025803,67.023849 119.993118,66.996300 119.978622,66.980438 
	C119.979279,75.993279 119.994423,85.021988 120.049461,94.516785 
z"/>
<path fill="#7C7CAD" opacity="1.000000" stroke="none" 
	d="
M120.017670,66.568748 
	C117.321068,67.020248 114.616333,67.016640 111.462227,67.028992 
	C111.008926,66.393890 110.997910,65.742790 111.002144,65.091782 
	C111.059586,56.245041 110.126541,57.018452 119.631584,57.018291 
	C120.064346,60.054974 120.036942,63.084305 120.017670,66.568748 
z"/>
<path fill="#33323E" opacity="1.000000" stroke="none" 
	d="
M130.030792,95.044907 
	C130.043549,89.949936 130.236374,84.805305 129.923065,79.691689 
	C129.725449,76.466087 130.896362,75.767494 133.841278,75.939957 
	C137.965927,76.181511 142.119507,76.112320 146.252396,75.956062 
	C148.463806,75.872467 149.110229,76.649887 149.040710,78.791641 
	C148.901138,83.091438 148.864594,87.404861 149.051437,91.701103 
	C149.162308,94.250229 148.433365,95.171806 145.766479,95.059486 
	C140.808624,94.850677 135.835861,94.995758 130.396545,94.966812 
	C129.923767,94.940109 129.996735,95.008362 130.030792,95.044907 
z"/>
<path fill="#33323D" opacity="1.000000" stroke="none" 
	d="
M177.044617,94.968735 
	C171.949692,94.956352 166.804977,94.764137 161.691299,95.077713 
	C158.466675,95.275452 157.766068,94.106728 157.939041,91.160492 
	C158.181213,87.035835 158.111725,82.882179 157.956146,78.749184 
	C157.873001,76.540474 158.645111,75.889107 160.789703,75.959175 
	C165.089523,76.099655 169.403046,76.135666 173.699387,75.949425 
	C176.246704,75.838997 177.171417,76.564445 177.058868,79.233231 
	C176.849777,84.191132 176.995468,89.163979 176.966492,94.603333 
	C176.939529,95.076065 177.007980,95.002892 177.044617,94.968735 
z"/>
<path fill="#D16C63" opacity="1.000000" stroke="none" 
	d="
M139.423157,181.021698 
	C138.971649,178.332581 138.977356,175.631104 138.959183,172.480957 
	C139.597427,172.023300 140.259567,172.007095 140.921692,172.006500 
	C150.093170,171.998291 148.880737,171.505081 149.022675,180.395630 
	C145.980545,180.894501 142.930450,180.951920 139.423157,181.021698 
z"/>
<path fill="#DE9970" opacity="1.000000" stroke="none" 
	d="
M166.000092,172.380981 
	C167.387848,172.045105 168.775482,172.032700 170.578705,172.038879 
	C170.241165,174.273560 168.832458,175.246460 166.241714,174.218140 
	C166.000000,173.568161 166.000000,173.136307 166.000092,172.380981 
z"/>
<path fill="#DE9970" opacity="1.000000" stroke="none" 
	d="
M163.651306,174.055161 
	C163.189041,176.652328 160.764938,176.451553 158.373688,176.984924 
	C159.121384,174.851074 161.413315,174.850098 163.651306,174.055161 
z"/>
<path fill="#DF9970" opacity="1.000000" stroke="none" 
	d="
M139.026550,228.587555 
	C130.013992,229.017059 120.984520,228.990677 111.491806,228.900574 
	C111.052177,217.384903 109.818474,219.148727 120.715591,219.014282 
	C126.518738,218.942688 132.323624,219.011993 138.600571,219.030487 
	C139.052170,222.072723 139.030899,225.102188 139.026550,228.587555 
z"/>
</svg>