<svg version="1.1" id="Layer_1" xmlns="http://www.w3.org/2000/svg" xmlns:xlink="http://www.w3.org/1999/xlink" x="0px" y="0px"
	 width="100%" viewBox="0 0 156 134" enable-background="new 0 0 156 134" xml:space="preserve">
<path fill="#000000" opacity="1.000000" stroke="none" 
	d="
M157.000000,52.000000 
	C157.000000,80.000000 157.000000,107.500000 157.000000,135.000000 
	C105.000000,135.000000 53.000000,135.000000 1.000000,135.000000 
	C1.000000,90.333336 1.000000,45.666668 1.000000,1.000000 
	C53.000000,1.000000 105.000000,1.000000 157.000000,1.000000 
	C157.000000,17.833334 157.000000,34.666668 157.000000,52.000000 
M20.127516,54.753330 
	C16.415901,54.754581 12.704288,54.755829 8.406116,54.411419 
	C7.952023,54.963345 7.106276,55.512115 7.101797,56.067665 
	C7.016263,66.677162 6.918855,77.290337 7.193377,87.893181 
	C7.220961,88.958527 9.571670,90.760353 10.936966,90.852936 
	C16.124649,91.204720 21.350430,90.994698 27.000076,90.994698 
	C27.000076,96.960068 27.324789,102.925964 26.896893,108.837379 
	C26.557198,113.530319 27.989279,115.698296 32.921021,116.005005 
	C32.114838,120.872742 35.228752,121.303337 38.923431,122.042175 
	C38.455963,125.924965 40.105968,127.119370 44.024818,127.084122 
	C64.283661,126.901871 84.546890,126.852791 104.804077,127.111389 
	C109.415230,127.170258 111.726257,126.097061 112.021088,121.089737 
	C116.860306,121.880959 117.293495,118.766373 118.061920,115.084740 
	C122.000420,115.563278 123.327705,113.825211 123.071426,109.926239 
	C122.766174,105.282242 123.253120,100.584923 122.925285,95.944016 
	C122.634705,91.830376 124.316605,90.766548 128.120483,90.935265 
	C133.772827,91.185966 139.446213,90.918465 145.107559,91.028702 
	C147.792816,91.080986 149.054138,90.226074 149.029861,87.333733 
	C148.936111,76.174026 148.944107,65.012665 149.029709,53.852814 
	C149.050552,51.134209 148.150284,49.921108 145.294220,49.969818 
	C138.466660,50.086262 131.634506,50.081066 124.806786,49.968948 
	C122.050850,49.923695 120.791283,50.913532 120.982521,53.741154 
	C121.136856,56.023010 121.048965,58.172749 117.728867,57.976913 
	C114.211510,57.769440 115.044052,55.169815 115.032021,53.193005 
	C114.966133,42.366032 114.954445,31.538137 115.030014,20.711298 
	C115.049454,17.926239 114.873100,15.783025 111.189308,15.823808 
	C110.254181,15.834161 108.588669,14.423243 108.481506,13.520278 
	C108.011528,9.560052 105.279289,9.992450 102.610878,9.994217 
	C84.953941,10.005906 67.296646,10.059375 49.640308,9.955797 
	C45.537727,9.931729 41.577763,9.515864 40.968922,15.168678 
	C40.903130,15.779493 39.962860,16.762960 39.405567,16.778849 
	C35.553833,16.888662 35.993401,19.572090 35.995625,22.077374 
	C36.005390,33.071308 36.065964,44.066277 35.903442,55.057842 
	C35.884346,56.349453 34.411648,58.775990 33.939705,58.698006 
	C32.189880,58.408875 30.541504,57.354862 28.929817,56.454308 
	C28.277681,56.089920 27.817846,55.381374 26.373041,54.684338 
	C24.596315,54.764275 22.819590,54.844215 20.127516,54.753330 
z"/>
<path fill="#33323D" opacity="1.000000" stroke="none" 
	d="
M27.270504,54.829441 
	C27.817846,55.381374 28.277681,56.089920 28.929817,56.454308 
	C30.541504,57.354862 32.189880,58.408875 33.939705,58.698006 
	C34.411648,58.775990 35.884346,56.349453 35.903442,55.057842 
	C36.065964,44.066277 36.005390,33.071308 35.995625,22.077374 
	C35.993401,19.572090 35.553833,16.888662 39.405567,16.778849 
	C39.962860,16.762960 40.903130,15.779493 40.968922,15.168678 
	C41.577763,9.515864 45.537727,9.931729 49.640308,9.955797 
	C67.296646,10.059375 84.953941,10.005906 102.610878,9.994217 
	C105.279289,9.992450 108.011528,9.560052 108.481506,13.520278 
	C108.588669,14.423243 110.254181,15.834161 111.189308,15.823808 
	C114.873100,15.783025 115.049454,17.926239 115.030014,20.711298 
	C114.954445,31.538137 114.966133,42.366032 115.032021,53.193005 
	C115.044052,55.169815 114.211510,57.769440 117.728867,57.976913 
	C121.048965,58.172749 121.136856,56.023010 120.982521,53.741154 
	C120.791283,50.913532 122.050850,49.923695 124.806786,49.968948 
	C131.634506,50.081066 138.466660,50.086262 145.294220,49.969818 
	C148.150284,49.921108 149.050552,51.134209 149.029709,53.852814 
	C148.944107,65.012665 148.936111,76.174026 149.029861,87.333733 
	C149.054138,90.226074 147.792816,91.080986 145.107559,91.028702 
	C139.446213,90.918465 133.772827,91.185966 128.120483,90.935265 
	C124.316605,90.766548 122.634705,91.830376 122.925285,95.944016 
	C123.253120,100.584923 122.766174,105.282242 123.071426,109.926239 
	C123.327705,113.825211 122.000420,115.563278 117.558434,115.065842 
	C117.054947,115.046951 116.880081,114.880081 116.929611,114.430099 
	C116.933723,110.336632 116.888306,106.693146 116.901413,102.615891 
	C116.959938,100.611656 116.959938,99.041183 116.959938,97.329254 
	C114.737732,97.329254 113.056488,97.329254 111.213051,97.329254 
	C111.092598,99.392448 110.989876,101.152069 110.466217,102.948135 
	C108.353394,102.994301 106.661499,103.004021 104.981255,102.586967 
	C104.940987,100.450348 104.889069,98.740501 104.896118,96.592873 
	C104.878143,94.569420 104.801208,92.983749 104.723312,91.378311 
	C90.650932,91.378311 77.020851,91.378311 62.991791,91.378311 
	C62.991791,95.531128 62.991791,99.313255 62.551460,103.052864 
	C60.534992,103.010353 58.958855,103.010353 57.327202,103.010353 
	C57.327202,105.238899 57.327202,107.072235 57.327202,108.910255 
	C59.433750,108.910255 61.214317,108.910255 62.996777,109.343658 
	C62.983162,111.508278 62.967659,113.239502 62.975876,114.985001 
	C62.999603,114.999275 62.971027,114.951828 62.504913,114.970078 
	C56.463066,114.988319 50.887325,114.988319 45.016079,114.988319 
	C45.016079,112.515564 45.016079,110.712463 45.455559,108.949829 
	C47.500362,108.990295 49.105686,108.990295 50.731400,108.990295 
	C50.731400,106.740471 50.731400,104.999908 50.731400,103.273804 
	C48.709602,103.273804 46.959290,103.273804 45.090435,103.273804 
	C45.090435,105.358185 45.090435,107.170952 44.644897,108.989754 
	C42.604805,108.907196 41.010250,108.818596 38.834343,108.697693 
	C38.834343,104.658707 38.834343,100.951897 38.834343,96.968544 
	C36.625614,97.090546 35.040272,97.178108 33.129105,97.283676 
	C33.129105,103.362564 33.129105,109.116562 33.045464,114.951057 
	C32.961819,115.031548 32.793289,115.191238 32.793289,115.191238 
	C27.989279,115.698296 26.557198,113.530319 26.896893,108.837379 
	C27.324789,102.925964 27.000076,96.960068 27.000076,90.994698 
	C21.350430,90.994698 16.124649,91.204720 10.936966,90.852936 
	C9.571670,90.760353 7.220961,88.958527 7.193377,87.893181 
	C6.918855,77.290337 7.016263,66.677162 7.101797,56.067665 
	C7.106276,55.512115 7.952023,54.963345 8.701828,55.039032 
	C9.092126,57.273121 9.186711,58.879597 9.314118,61.043530 
	C13.424514,61.043530 17.205854,61.043530 20.991035,61.472359 
	C21.003656,63.617962 21.012438,65.334740 20.556664,67.033966 
	C16.509663,67.016426 12.927216,67.016426 9.401014,67.016426 
	C9.401014,73.447571 9.401014,79.017029 9.401014,84.634567 
	C53.369576,84.634567 96.936134,84.634567 140.669647,84.634567 
	C140.669647,78.695923 140.669647,73.127090 140.669647,67.052452 
	C136.561584,67.052452 132.770920,67.052452 128.987030,66.623428 
	C129.000153,64.477440 129.006500,62.760479 129.473572,61.028091 
	C133.501007,61.012665 137.067703,61.012665 140.993423,61.012665 
	C140.876495,58.644539 140.799011,57.075687 140.703629,55.143833 
	C136.583054,55.143833 132.825455,55.143833 128.637314,55.101715 
	C125.499519,54.910210 122.765808,54.527489 122.814720,58.721310 
	C122.823387,59.464493 121.221565,60.814587 120.303421,60.868824 
	C117.678909,61.023865 116.371819,62.334652 117.227150,64.582359 
	C117.658745,65.716530 119.701088,66.690384 121.133972,66.892029 
	C123.725136,67.256668 126.405434,66.987923 129.031982,67.416191 
	C129.104706,69.445137 129.193954,71.041542 129.285110,72.671654 
	C131.352463,72.942711 132.948090,73.151917 134.700043,73.381615 
	C134.700043,75.247055 134.700043,76.823456 134.700043,78.903572 
	C128.663773,78.903572 122.887894,78.903572 117.077011,78.485443 
	C117.923958,72.971466 114.766426,72.645401 111.028275,72.519501 
	C111.013206,54.524975 111.013206,36.998081 111.013206,19.035421 
	C108.547523,19.035421 106.757004,19.035421 104.978119,18.594959 
	C104.888748,16.568375 104.787743,14.982254 104.670601,13.142820 
	C86.503410,13.142820 68.786659,13.142820 50.639359,13.098973 
	C44.961750,11.993823 44.621017,15.187242 44.592007,19.020683 
	C42.579990,19.134199 41.004120,19.256237 39.020657,19.409840 
	C39.020657,36.601734 38.987743,53.291668 39.104385,69.980553 
	C39.111210,70.957016 40.338814,72.771461 40.977829,72.762329 
	C45.845951,72.692795 45.046791,75.950432 44.427376,78.937233 
	C34.411335,78.970848 24.855806,78.970848 14.966370,78.970848 
	C15.120281,76.530052 15.219927,74.949829 15.322059,73.330162 
	C17.344662,73.062515 18.942106,72.851128 20.952282,72.585121 
	C20.952282,70.562195 20.952282,68.772202 21.417095,66.987549 
	C24.690844,66.983360 27.519911,67.160431 30.297550,66.860794 
	C31.240765,66.759041 32.730965,65.485664 32.767159,64.692726 
	C32.820377,63.526749 31.784071,61.273884 31.227873,61.278831 
	C26.067785,61.324741 26.842361,58.024345 27.270504,54.829441 
M54.301384,96.999123 
	C59.412544,96.848396 56.062355,93.348877 57.112637,91.236649 
	C52.794979,91.236649 49.060612,91.236649 45.243618,91.236649 
	C45.243618,93.203300 45.243618,94.930527 45.243618,96.999908 
	C48.104515,96.999908 50.728123,96.999908 54.301384,96.999123 
z"/>
<path fill="#33323D" opacity="1.000000" stroke="none" 
	d="
M111.212143,121.231438 
	C111.726257,126.097061 109.415230,127.170258 104.804077,127.111389 
	C84.546890,126.852791 64.283661,126.901871 44.024818,127.084122 
	C40.105968,127.119370 38.455963,125.924965 38.945824,121.540062 
	C38.968220,121.037949 39.129078,120.870544 39.586849,120.919418 
	C47.713058,120.926514 55.381496,120.884720 63.511421,120.907928 
	C79.608559,120.942047 95.244217,120.911171 110.963287,120.967758 
	C111.046692,121.055214 111.212143,121.231438 111.212143,121.231438 
z"/>
<path fill="#68538A" opacity="1.000000" stroke="none" 
	d="
M21.021219,67.051514 
	C21.012438,65.334740 21.003656,63.617962 20.995083,61.035263 
	C21.011150,58.420948 21.027006,56.672550 21.042864,54.924156 
	C22.819590,54.844215 24.596315,54.764275 26.821774,54.756889 
	C26.842361,58.024345 26.067785,61.324741 31.227873,61.278831 
	C31.784071,61.273884 32.820377,63.526749 32.767159,64.692726 
	C32.730965,65.485664 31.240765,66.759041 30.297550,66.860794 
	C27.519911,67.160431 24.690844,66.983360 21.449108,66.990036 
	C21.016308,66.987175 21.021219,67.051514 21.021219,67.051514 
z"/>
<path fill="#7B7BAB" opacity="1.000000" stroke="none" 
	d="
M20.585190,54.838745 
	C21.027006,56.672550 21.011150,58.420948 20.991243,60.606438 
	C17.205854,61.043530 13.424514,61.043530 9.314118,61.043530 
	C9.186711,58.879597 9.092126,57.273121 8.995106,55.211861 
	C12.704288,54.755829 16.415901,54.754581 20.585190,54.838745 
z"/>
<path fill="#33323D" opacity="1.000000" stroke="none" 
	d="
M117.143021,115.129715 
	C117.293495,118.766373 116.860306,121.880959 111.616615,121.160583 
	C111.212143,121.231438 111.046692,121.055214 111.012772,120.542946 
	C111.062370,118.450607 111.145882,116.870529 111.236504,115.155907 
	C113.334572,115.053360 115.107323,114.966721 116.880081,114.880081 
	C116.880081,114.880081 117.054947,115.046951 117.143021,115.129715 
z"/>
<path fill="#33323D" opacity="1.000000" stroke="none" 
	d="
M38.888412,121.122238 
	C35.228752,121.303337 32.114838,120.872742 32.857155,115.598122 
	C32.793289,115.191238 32.961819,115.031548 33.465927,114.999481 
	C35.528419,115.066437 37.086803,115.165451 38.780663,115.273079 
	C38.911472,117.374580 39.020275,119.122566 39.129078,120.870544 
	C39.129078,120.870544 38.968220,121.037949 38.888412,121.122238 
z"/>
<path fill="#7B7BAB" opacity="1.000000" stroke="none" 
	d="
M117.112015,78.903572 
	C122.887894,78.903572 128.663773,78.903572 134.700043,78.903572 
	C134.700043,76.823456 134.700043,75.247055 134.700043,73.381615 
	C132.948090,73.151917 131.352463,72.942711 129.285110,72.671654 
	C129.193954,71.041542 129.104706,69.445137 128.999863,67.418335 
	C128.984283,66.987938 128.980240,67.052452 128.980240,67.052452 
	C132.770920,67.052452 136.561584,67.052452 140.669647,67.052452 
	C140.669647,73.127090 140.669647,78.695923 140.669647,84.634567 
	C96.936134,84.634567 53.369576,84.634567 9.401014,84.634567 
	C9.401014,79.017029 9.401014,73.447571 9.401014,67.016426 
	C12.927216,67.016426 16.509663,67.016426 20.556664,67.033966 
	C21.021219,67.051514 21.016308,66.987175 20.984295,66.984695 
	C20.952282,68.772202 20.952282,70.562195 20.952282,72.585121 
	C18.942106,72.851128 17.344662,73.062515 15.322059,73.330162 
	C15.219927,74.949829 15.120281,76.530052 14.966370,78.970848 
	C24.855806,78.970848 34.411335,78.970848 44.903450,78.965042 
	C50.322720,78.969658 54.821133,79.190674 59.278175,78.857788 
	C60.558460,78.762169 61.719326,77.067551 62.934944,76.106079 
	C61.790527,75.075691 60.799557,73.661568 59.457676,73.124985 
	C58.166988,72.608871 56.505608,72.901108 55.020580,73.014526 
	C51.980244,73.246704 50.879398,71.864006 50.969040,68.902023 
	C51.109608,64.257339 51.010555,59.605404 51.446098,54.971951 
	C53.616165,54.985664 55.353127,54.983967 57.053329,54.982914 
	C57.016563,54.983559 57.017635,54.910027 57.011581,55.377701 
	C57.005531,59.415302 57.005531,62.985229 57.005531,66.966179 
	C59.459270,66.966179 61.239689,66.966179 63.441601,66.979233 
	C65.548531,66.986916 67.233963,66.981544 69.359314,66.982803 
	C71.559692,66.985023 73.320152,66.980606 75.497742,66.985390 
	C77.583038,66.988441 79.251221,66.982307 81.359314,66.982803 
	C83.559692,66.985016 85.320152,66.980606 87.501938,66.985397 
	C89.608795,66.985123 91.294350,66.975655 93.418152,66.978683 
	C95.438194,66.891075 97.019989,66.790970 98.982361,66.666779 
	C98.982361,62.460106 98.982361,58.685066 98.982910,54.946800 
	C98.983452,54.983570 98.909912,54.982307 99.353394,54.988281 
	C101.375053,54.898022 102.953232,54.801785 104.628059,54.699657 
	C104.628059,48.656494 104.628059,43.020725 104.628059,37.017693 
	C102.474976,37.017693 100.692444,37.017693 98.946701,37.017105 
	C98.983482,37.016518 98.982307,37.090092 98.988281,36.646599 
	C98.892677,34.611595 98.791092,33.020088 98.669022,31.107651 
	C84.522362,31.107651 70.789886,31.107651 57.042603,30.681328 
	C57.040154,28.551054 57.052509,26.847103 57.526337,25.091917 
	C73.503830,25.040684 89.019852,25.040684 105.033997,25.040684 
	C105.033997,22.544476 105.033997,20.755262 105.017044,18.983322 
	C105.000099,19.000593 104.966484,19.035421 104.966484,19.035421 
	C106.757004,19.035421 108.547523,19.035421 111.013206,19.035421 
	C111.013206,36.998081 111.013206,54.524975 110.598602,72.523705 
	C107.900169,73.184135 104.833557,72.204430 105.073517,76.268257 
	C105.291595,79.961655 108.191345,78.842529 110.254211,78.961945 
	C112.531387,79.093765 114.825356,78.935486 117.112015,78.903572 
M97.220787,73.149162 
	C95.863762,73.706810 94.154816,73.955086 93.286736,74.942558 
	C92.795906,75.500900 93.299881,77.759972 94.061676,78.366714 
	C94.863625,79.005447 97.554390,78.838219 97.613510,78.591057 
	C98.009201,76.936829 97.922646,75.167244 97.220787,73.149162 
z"/>
<path fill="#68538A" opacity="1.000000" stroke="none" 
	d="
M51.012993,54.956539 
	C51.010555,59.605404 51.109608,64.257339 50.969040,68.902023 
	C50.879398,71.864006 51.980244,73.246704 55.020580,73.014526 
	C56.505608,72.901108 58.166988,72.608871 59.457676,73.124985 
	C60.799557,73.661568 61.790527,75.075691 62.934944,76.106079 
	C61.719326,77.067551 60.558460,78.762169 59.278175,78.857788 
	C54.821133,79.190674 50.322720,78.969658 45.363968,78.931427 
	C45.046791,75.950432 45.845951,72.692795 40.977829,72.762329 
	C40.338814,72.771461 39.111210,70.957016 39.104385,69.980553 
	C38.987743,53.291668 39.020657,36.601734 39.020657,19.409840 
	C41.004120,19.256237 42.579990,19.134199 44.576790,19.005077 
	C44.997715,18.997993 44.967442,18.967440 44.977753,19.403694 
	C44.378559,23.923201 46.108135,25.499308 50.196621,25.052336 
	C52.455727,24.805361 54.773525,25.095266 57.064865,25.143150 
	C57.052509,26.847103 57.040154,28.551054 57.025707,30.649899 
	C57.023617,31.044792 57.090477,31.024664 56.657784,31.017967 
	C51.094715,30.090275 50.621845,33.193695 51.008907,37.508694 
	C51.007671,43.634758 51.010330,49.295647 51.012993,54.956539 
z"/>
<path fill="#EEBC9D" opacity="1.000000" stroke="none" 
	d="
M116.929611,114.430099 
	C115.107323,114.966721 113.334572,115.053360 111.236504,115.155907 
	C111.145882,116.870529 111.062370,118.450607 110.929367,120.455490 
	C95.244217,120.911171 79.608559,120.942047 63.497879,120.488304 
	C63.005577,118.319740 62.988304,116.635780 62.971027,114.951828 
	C62.971027,114.951828 62.999603,114.999275 63.416187,114.992950 
	C65.592155,114.961311 67.351540,114.935997 69.571541,114.947708 
	C79.609924,114.984741 89.187698,114.984741 99.059067,114.984741 
	C99.059067,112.596764 99.059067,110.785240 99.017380,108.974709 
	C98.975700,108.975700 98.973640,109.059067 99.411484,109.034729 
	C101.520332,109.010399 103.191322,109.010399 105.059067,109.010399 
	C105.059067,106.481476 105.059067,104.727554 105.027710,102.963631 
	C104.996346,102.953621 104.969597,103.013748 104.969597,103.013748 
	C106.661499,103.004021 108.353394,102.994301 110.891388,102.972389 
	C113.439278,102.990021 115.141083,103.019836 116.842880,103.049652 
	C116.888306,106.693146 116.933723,110.336632 116.929611,114.430099 
z"/>
<path fill="#7B7BAB" opacity="1.000000" stroke="none" 
	d="
M51.069908,13.142820 
	C68.786659,13.142820 86.503410,13.142820 104.670601,13.142820 
	C104.787743,14.982254 104.888748,16.568375 104.978119,18.594959 
	C104.966484,19.035421 105.000099,19.000593 104.546242,18.995125 
	C86.416542,18.945377 68.740700,18.901094 51.047501,18.447914 
	C51.043396,16.406952 51.056652,14.774886 51.069908,13.142820 
z"/>
<path fill="#DE9970" opacity="1.000000" stroke="none" 
	d="
M104.837143,97.030655 
	C104.889069,98.740501 104.940987,100.450348 104.981255,102.586975 
	C104.969597,103.013748 104.996346,102.953621 104.589340,102.973816 
	C102.517403,102.994011 100.852463,102.994011 98.973640,102.994011 
	C98.973640,105.562096 98.973640,107.310585 98.973640,109.059067 
	C98.973640,109.059067 98.975700,108.975700 98.545059,108.984909 
	C90.419823,108.941795 82.725227,108.889473 75.022675,108.424393 
	C75.873238,103.101768 72.722046,102.730125 69.112091,102.412918 
	C68.354630,97.923119 70.263824,96.597610 74.098740,96.965736 
	C76.407005,97.187325 78.748512,97.062607 81.052322,97.516060 
	C80.128456,104.528206 84.976547,102.643211 88.407234,103.023308 
	C93.340530,103.569878 93.221405,100.439194 93.387619,97.069130 
	C97.512596,97.040047 101.174866,97.035347 104.837143,97.030655 
z"/>
<path fill="#CD897C" opacity="1.000000" stroke="none" 
	d="
M62.504913,114.970078 
	C62.988304,116.635780 63.005577,118.319740 63.036392,120.423309 
	C55.381496,120.884720 47.713058,120.926514 39.586849,120.919418 
	C39.020275,119.122566 38.911472,117.374580 38.780663,115.273079 
	C37.086803,115.165451 35.528419,115.066437 33.549568,114.918991 
	C33.129105,109.116562 33.129105,103.362564 33.129105,97.283676 
	C35.040272,97.178108 36.625614,97.090546 38.834343,96.968544 
	C38.834343,100.951897 38.834343,104.658707 38.834343,108.697693 
	C41.010250,108.818596 42.604805,108.907196 44.605576,108.991898 
	C45.011787,108.988007 45.016079,108.909363 45.016079,108.909363 
	C45.016079,110.712463 45.016079,112.515564 45.016079,114.988319 
	C50.887325,114.988319 56.463066,114.988319 62.504913,114.970078 
z"/>
<path fill="#D06C63" opacity="1.000000" stroke="none" 
	d="
M104.896111,96.592873 
	C101.174866,97.035347 97.512596,97.040047 92.935455,97.037537 
	C88.372086,97.051392 84.723587,97.072449 81.075081,97.093506 
	C78.748512,97.062607 76.407005,97.187325 74.098740,96.965736 
	C70.263824,96.597610 68.354630,97.923119 69.048767,102.481285 
	C69.025772,102.968781 68.898361,103.101646 68.473709,103.064499 
	C66.339561,103.021080 64.630074,103.014824 62.959980,103.012558 
	C62.999378,103.016541 62.991791,103.095375 62.991791,103.095375 
	C62.991791,99.313255 62.991791,95.531128 62.991791,91.378311 
	C77.020851,91.378311 90.650932,91.378311 104.723312,91.378311 
	C104.801208,92.983749 104.878143,94.569420 104.896111,96.592873 
z"/>
<path fill="#68538A" opacity="1.000000" stroke="none" 
	d="
M129.012848,61.043518 
	C129.006500,62.760479 129.000153,64.477440 128.987030,66.623428 
	C128.980240,67.052452 128.984283,66.987938 129.016388,66.985794 
	C126.405434,66.987923 123.725136,67.256668 121.133972,66.892029 
	C119.701088,66.690384 117.658745,65.716530 117.227150,64.582359 
	C116.371819,62.334652 117.678909,61.023865 120.303421,60.868824 
	C121.221565,60.814587 122.823387,59.464493 122.814720,58.721310 
	C122.765808,54.527489 125.499519,54.910210 128.617767,55.520363 
	C129.023468,57.668591 129.018158,59.356056 129.012848,61.043518 
z"/>
<path fill="#FFFFFF" opacity="1.000000" stroke="none" 
	d="
M53.826557,96.999512 
	C50.728123,96.999908 48.104515,96.999908 45.243618,96.999908 
	C45.243618,94.930527 45.243618,93.203300 45.243618,91.236649 
	C49.060612,91.236649 52.794979,91.236649 57.112637,91.236649 
	C56.062355,93.348877 59.412544,96.848396 53.826557,96.999512 
z"/>
<path fill="#7B7BAB" opacity="1.000000" stroke="none" 
	d="
M129.473587,61.028091 
	C129.018158,59.356056 129.023468,57.668591 129.048309,55.562481 
	C132.825455,55.143833 136.583054,55.143833 140.703629,55.143833 
	C140.799011,57.075687 140.876495,58.644539 140.993423,61.012665 
	C137.067703,61.012665 133.501007,61.012665 129.473587,61.028091 
z"/>
<path fill="#68538A" opacity="1.000000" stroke="none" 
	d="
M117.077011,78.485443 
	C114.825356,78.935486 112.531387,79.093765 110.254211,78.961945 
	C108.191345,78.842529 105.291595,79.961655 105.073517,76.268257 
	C104.833557,72.204430 107.900169,73.184135 110.613670,72.991333 
	C114.766426,72.645401 117.923958,72.971466 117.077011,78.485443 
z"/>
<path fill="#FFFFFF" opacity="1.000000" stroke="none" 
	d="
M62.994888,108.910255 
	C61.214317,108.910255 59.433750,108.910255 57.327202,108.910255 
	C57.327202,107.072235 57.327202,105.238899 57.327202,103.010353 
	C58.958855,103.010353 60.534992,103.010353 62.551460,103.052864 
	C62.991791,103.095375 62.999378,103.016541 62.995434,103.439003 
	C62.967152,105.572777 62.942814,107.284081 62.958729,108.993088 
	C62.998981,108.990784 62.994888,108.910255 62.994888,108.910255 
z"/>
<path fill="#68538A" opacity="1.000000" stroke="none" 
	d="
M50.639359,13.098973 
	C51.056652,14.774886 51.043396,16.406952 50.613598,18.492790 
	C48.453850,18.953522 46.710648,18.960480 44.967442,18.967440 
	C44.967442,18.967440 44.997715,18.997993 45.012932,19.013599 
	C44.621017,15.187242 44.961750,11.993823 50.639359,13.098973 
z"/>
<path fill="#CD897C" opacity="1.000000" stroke="none" 
	d="
M69.110924,114.910683 
	C67.351540,114.935997 65.592155,114.961311 63.392464,114.978668 
	C62.967659,113.239502 62.983162,111.508278 62.996777,109.343658 
	C62.994888,108.910255 62.998981,108.990784 63.395218,108.994812 
	C65.537125,109.012733 67.282799,109.026619 69.040482,109.016846 
	C69.052490,108.993195 69.009506,108.963173 69.005951,109.388748 
	C69.038582,111.513107 69.074753,113.211891 69.110924,114.910683 
z"/>
<path fill="#FFFFFF" opacity="1.000000" stroke="none" 
	d="
M45.051109,108.985855 
	C45.090435,107.170952 45.090435,105.358185 45.090435,103.273804 
	C46.959290,103.273804 48.709602,103.273804 50.731400,103.273804 
	C50.731400,104.999908 50.731400,106.740471 50.731400,108.990295 
	C49.105686,108.990295 47.500362,108.990295 45.455559,108.949829 
	C45.016079,108.909363 45.011787,108.988007 45.051109,108.985855 
z"/>
<path fill="#CD897C" opacity="1.000000" stroke="none" 
	d="
M116.901413,102.615891 
	C115.141083,103.019836 113.439278,102.990021 111.312317,102.935951 
	C110.989876,101.152069 111.092598,99.392448 111.213051,97.329254 
	C113.056488,97.329254 114.737732,97.329254 116.959938,97.329254 
	C116.959938,99.041183 116.959938,100.611656 116.901413,102.615891 
z"/>
<path fill="#FFFFFF" opacity="1.000000" stroke="none" 
	d="
M92.979897,66.966187 
	C91.294350,66.975655 89.608795,66.985123 87.468536,66.549713 
	C86.941628,64.511681 86.869438,62.918537 86.796234,61.302845 
	C84.715935,61.302845 82.993347,61.302845 80.919395,61.302845 
	C80.919395,63.388020 80.919395,65.182091 80.919395,66.976166 
	C79.251221,66.982307 77.583038,66.988441 75.464340,66.549698 
	C74.941628,64.511681 74.869438,62.918537 74.796227,61.302845 
	C72.715935,61.302845 70.993347,61.302845 68.919395,61.302845 
	C68.919395,63.388020 68.919395,65.182091 68.919395,66.976166 
	C67.233963,66.981544 65.548531,66.986916 63.432636,66.521362 
	C62.976097,62.346817 62.950024,58.643200 63.391800,54.966499 
	C67.444336,54.993408 71.029022,54.993408 74.621017,54.993408 
	C74.621017,50.724834 74.621017,46.905060 74.621017,43.358044 
	C70.527130,43.358044 66.817535,43.358044 63.065784,43.358044 
	C63.065784,47.504452 63.065784,51.293072 62.634758,55.045227 
	C60.475029,54.975849 58.746334,54.942936 57.017635,54.910027 
	C57.017635,54.910027 57.016563,54.983559 57.013058,54.517590 
	C56.995461,48.356564 56.981365,42.661503 57.437771,36.981445 
	C71.599617,37.027664 85.290962,37.058880 98.982307,37.090092 
	C98.982307,37.090092 98.983482,37.016518 98.986969,37.482391 
	C98.963600,43.626282 98.936760,49.304295 98.909912,54.982307 
	C98.909912,54.982307 98.983452,54.983570 98.552948,54.986969 
	C96.394836,55.018925 94.667221,55.047489 92.966507,54.608200 
	C92.993408,50.555660 92.993408,46.970970 92.993408,43.378983 
	C88.725754,43.378983 84.904831,43.378983 81.358047,43.378983 
	C81.358047,47.472881 81.358047,51.182484 81.358047,54.934212 
	C85.504463,54.934212 89.293091,54.934212 93.045242,55.397530 
	C92.999146,59.562622 92.989517,63.264400 92.979897,66.966187 
z"/>
<path fill="#33323D" opacity="1.000000" stroke="none" 
	d="
M44.977753,19.403694 
	C46.710648,18.960480 48.453850,18.953522 50.630959,18.901688 
	C68.740700,18.901094 86.416542,18.945377 104.563187,18.977854 
	C105.033997,20.755262 105.033997,22.544476 105.033997,25.040684 
	C89.019852,25.040684 73.503830,25.040684 57.526337,25.091917 
	C54.773525,25.095266 52.455727,24.805361 50.196621,25.052336 
	C46.108135,25.499308 44.378559,23.923201 44.977753,19.403694 
z"/>
<path fill="#33323D" opacity="1.000000" stroke="none" 
	d="
M98.988281,36.646599 
	C85.290962,37.058880 71.599617,37.027664 57.451973,36.995926 
	C56.995674,36.995407 57.024174,37.024174 57.015877,36.595356 
	C57.035213,34.452579 57.062847,32.738621 57.090477,31.024664 
	C57.090477,31.024664 57.023617,31.044792 57.040512,31.076221 
	C70.789886,31.107651 84.522362,31.107651 98.669022,31.107651 
	C98.791092,33.020088 98.892677,34.611595 98.988281,36.646599 
z"/>
<path fill="#33323D" opacity="1.000000" stroke="none" 
	d="
M99.353394,54.988281 
	C98.936760,49.304295 98.963600,43.626282 98.950180,37.482979 
	C100.692444,37.017693 102.474976,37.017693 104.628059,37.017693 
	C104.628059,43.020725 104.628059,48.656494 104.628059,54.699657 
	C102.953232,54.801785 101.375053,54.898022 99.353394,54.988281 
z"/>
<path fill="#33323D" opacity="1.000000" stroke="none" 
	d="
M56.981476,36.980927 
	C56.981365,42.661503 56.995461,48.356564 57.049820,54.516945 
	C55.353127,54.983967 53.616165,54.985664 51.446095,54.971951 
	C51.010330,49.295647 51.007671,43.634758 51.437477,37.493271 
	C53.588020,37.016506 55.306099,37.020340 57.024174,37.024174 
	C57.024174,37.024174 56.995674,36.995407 56.981476,36.980927 
z"/>
<path fill="#33323D" opacity="1.000000" stroke="none" 
	d="
M93.418152,66.978683 
	C92.989517,63.264400 92.999146,59.562622 93.008499,55.431774 
	C93.008240,55.002705 92.939613,55.076050 92.939613,55.076050 
	C94.667221,55.047489 96.394836,55.018925 98.552399,54.950195 
	C98.982361,58.685066 98.982361,62.460106 98.982361,66.666779 
	C97.019989,66.790970 95.438194,66.891075 93.418152,66.978683 
z"/>
<path fill="#33323D" opacity="1.000000" stroke="none" 
	d="
M62.923946,54.939587 
	C62.950024,58.643200 62.976097,62.346817 63.011139,66.508301 
	C61.239689,66.966179 59.459270,66.966179 57.005531,66.966179 
	C57.005531,62.985229 57.005531,59.415302 57.011581,55.377701 
	C58.746334,54.942936 60.475029,54.975849 62.600510,55.008488 
	C62.997292,55.008217 62.923946,54.939587 62.923946,54.939587 
z"/>
<path fill="#68538A" opacity="1.000000" stroke="none" 
	d="
M69.359314,66.982803 
	C68.919395,65.182091 68.919395,63.388020 68.919395,61.302845 
	C70.993347,61.302845 72.715935,61.302845 74.796227,61.302845 
	C74.869438,62.918537 74.941628,64.511681 75.047218,66.540512 
	C73.320152,66.980606 71.559692,66.985023 69.359314,66.982803 
z"/>
<path fill="#68538A" opacity="1.000000" stroke="none" 
	d="
M81.359314,66.982803 
	C80.919395,65.182091 80.919395,63.388020 80.919395,61.302845 
	C82.993347,61.302845 84.715935,61.302845 86.796234,61.302845 
	C86.869438,62.918537 86.941628,64.511681 87.047218,66.540512 
	C85.320152,66.980606 83.559692,66.985016 81.359314,66.982803 
z"/>
<path fill="#68538A" opacity="1.000000" stroke="none" 
	d="
M97.606674,73.292130 
	C97.922646,75.167244 98.009201,76.936829 97.613510,78.591057 
	C97.554390,78.838219 94.863625,79.005447 94.061676,78.366714 
	C93.299881,77.759972 92.795906,75.500900 93.286736,74.942558 
	C94.154816,73.955086 95.863762,73.706810 97.606674,73.292130 
z"/>
<path fill="#7B7BAB" opacity="1.000000" stroke="none" 
	d="
M57.015877,36.595356 
	C55.306099,37.020340 53.588020,37.016506 51.441376,37.028099 
	C50.621845,33.193695 51.094715,30.090275 56.657784,31.017967 
	C57.062847,32.738621 57.035213,34.452579 57.015877,36.595356 
z"/>
<path fill="#33323D" opacity="1.000000" stroke="none" 
	d="
M69.571541,114.947708 
	C69.074753,113.211891 69.038582,111.513107 69.434334,109.401871 
	C71.587723,108.938667 73.309181,108.887901 75.030640,108.837143 
	C82.725227,108.889473 90.419823,108.941795 98.586739,108.983917 
	C99.059067,110.785240 99.059067,112.596764 99.059067,114.984741 
	C89.187698,114.984741 79.609924,114.984741 69.571541,114.947708 
z"/>
<path fill="#33323D" opacity="1.000000" stroke="none" 
	d="
M99.411484,109.034729 
	C98.973640,107.310585 98.973640,105.562096 98.973640,102.994011 
	C100.852463,102.994011 102.517403,102.994011 104.620697,102.983826 
	C105.059067,104.727554 105.059067,106.481476 105.059067,109.010399 
	C103.191322,109.010399 101.520332,109.010399 99.411484,109.034729 
z"/>
<path fill="#EAC088" opacity="1.000000" stroke="none" 
	d="
M81.052322,97.516052 
	C84.723587,97.072449 88.372086,97.051392 92.472755,97.061920 
	C93.221405,100.439194 93.340530,103.569878 88.407234,103.023308 
	C84.976547,102.643211 80.128456,104.528206 81.052322,97.516052 
z"/>
<path fill="#D06C63" opacity="1.000000" stroke="none" 
	d="
M75.022675,108.424393 
	C73.309181,108.887901 71.587723,108.938667 69.437881,108.976303 
	C69.009506,108.963173 69.052490,108.993195 69.030197,108.591888 
	C68.971390,106.494270 68.934875,104.797958 68.898361,103.101646 
	C68.898361,103.101646 69.025772,102.968781 69.089096,102.900421 
	C72.722046,102.730125 75.873238,103.101768 75.022675,108.424393 
z"/>
<path fill="#33323D" opacity="1.000000" stroke="none" 
	d="
M68.473709,103.064499 
	C68.934875,104.797958 68.971390,106.494270 69.018188,108.615540 
	C67.282799,109.026619 65.537125,109.012733 63.354965,108.997116 
	C62.942814,107.284081 62.967152,105.572777 62.956036,103.435013 
	C64.630074,103.014824 66.339561,103.021080 68.473709,103.064499 
z"/>
<path fill="#33323D" opacity="1.000000" stroke="none" 
	d="
M63.031540,55.044952 
	C63.065784,51.293072 63.065784,47.504452 63.065784,43.358044 
	C66.817535,43.358044 70.527130,43.358044 74.621017,43.358044 
	C74.621017,46.905060 74.621017,50.724834 74.621017,54.993408 
	C71.029022,54.993408 67.444336,54.993408 63.391800,54.966499 
	C62.923946,54.939587 62.997292,55.008217 63.031540,55.044952 
z"/>
<path fill="#33323D" opacity="1.000000" stroke="none" 
	d="
M93.044975,54.968460 
	C89.293091,54.934212 85.504463,54.934212 81.358047,54.934212 
	C81.358047,51.182484 81.358047,47.472881 81.358047,43.378983 
	C84.904831,43.378983 88.725754,43.378983 92.993408,43.378983 
	C92.993408,46.970970 92.993408,50.555660 92.966507,54.608200 
	C92.939613,55.076050 93.008240,55.002705 93.044975,54.968460 
z"/>
</svg>